<svg width="20" height="20" viewBox="0 0 20 20" fill="none" xmlns="http://www.w3.org/2000/svg">
<path d="M10 0.25C8.07164 0.25 6.18657 0.821828 4.58319 1.89317C2.97982 2.96451 1.73013 4.48726 0.992179 6.26884C0.254225 8.05042 0.061142 10.0108 0.437348 11.9021C0.813554 13.7934 1.74215 15.5307 3.10571 16.8943C4.46928 18.2579 6.20656 19.1865 8.09787 19.5627C9.98919 19.9389 11.9496 19.7458 13.7312 19.0078C15.5127 18.2699 17.0355 17.0202 18.1068 15.4168C19.1782 13.8134 19.75 11.9284 19.75 10C19.7473 7.41498 18.7192 4.93661 16.8913 3.10872C15.0634 1.28084 12.585 0.25273 10 0.25ZM18.2153 9.25H14.4813C14.3491 6.58187 13.5184 4.04969 12.1263 2.03125C13.7568 2.469 15.2142 3.39535 16.3027 4.68582C17.3912 5.97629 18.0587 7.56903 18.2153 9.25ZM7.02157 10.75H12.9784C12.8209 13.6441 11.7597 16.3394 10 18.2397C8.24407 16.3394 7.17907 13.6441 7.02157 10.75ZM7.02157 9.25C7.17907 6.35594 8.24032 3.66062 10 1.76031C11.7559 3.66062 12.8209 6.35406 12.9784 9.25H7.02157ZM12.1263 17.9688C13.5184 15.9475 14.3491 13.4153 14.4813 10.75H18.2153C18.0587 12.431 17.3912 14.0237 16.3027 15.3142C15.2142 16.6046 13.7568 17.531 12.1263 17.9688Z" fill="#101010"/>
</svg>
