<svg width="20" height="22" viewBox="0 0 20 22" fill="none" xmlns="http://www.w3.org/2000/svg">
<path d="M18.8428 17.1449C18.5101 17.9135 18.1163 18.6211 17.66 19.2715C17.0381 20.1583 16.5288 20.7721 16.1364 21.113C15.528 21.6724 14.8762 21.959 14.1782 21.9753C13.6771 21.9753 13.0728 21.8327 12.3693 21.5434C11.6636 21.2555 11.015 21.113 10.422 21.113C9.80003 21.113 9.13299 21.2555 8.4195 21.5434C7.70493 21.8327 7.12928 21.9834 6.68916 21.9984C6.01981 22.0269 5.35264 21.7322 4.68668 21.113C4.26164 20.7422 3.72999 20.1067 3.09309 19.2063C2.40976 18.2449 1.84796 17.13 1.40784 15.8589C0.936484 14.486 0.700195 13.1565 0.700195 11.8694C0.700195 10.3951 1.01878 9.12345 1.65689 8.05784C2.1584 7.20191 2.82557 6.52672 3.66059 6.03105C4.49562 5.53539 5.39786 5.2828 6.36949 5.26664C6.90114 5.26664 7.59833 5.43109 8.46472 5.75429C9.32867 6.07858 9.88341 6.24303 10.1266 6.24303C10.3085 6.24303 10.9247 6.05074 11.9694 5.66738C12.9573 5.31186 13.7911 5.16466 14.4742 5.22264C16.3251 5.37202 17.7157 6.10167 18.6405 7.41619C16.9851 8.4192 16.1662 9.82403 16.1825 11.6262C16.1975 13.03 16.7067 14.1981 17.7076 15.1256C18.1611 15.5561 18.6676 15.8888 19.2312 16.1251C19.109 16.4795 18.98 16.819 18.8428 17.1449ZM14.5978 0.440369C14.5978 1.54062 14.1958 2.56792 13.3946 3.51878C12.4277 4.64917 11.2582 5.30236 9.99001 5.19929C9.97385 5.06729 9.96448 4.92837 9.96448 4.78239C9.96448 3.72615 10.4243 2.59576 11.2408 1.67152C11.6485 1.20356 12.167 0.814453 12.7957 0.504058C13.4231 0.198295 14.0166 0.0292007 14.5747 0.000244141C14.591 0.147331 14.5978 0.294426 14.5978 0.440355V0.440369Z" fill="white"/>
</svg>
