<svg width="15" height="15" viewBox="0 0 15 15" fill="none" xmlns="http://www.w3.org/2000/svg">
<path d="M14.2499 1.5V11.25C14.2499 11.4489 14.1709 11.6397 14.0303 11.7803C13.8896 11.921 13.6988 12 13.4999 12C13.301 12 13.1103 11.921 12.9696 11.7803C12.8289 11.6397 12.7499 11.4489 12.7499 11.25V3.31031L2.03055 14.0306C1.88982 14.1714 1.69895 14.2504 1.49993 14.2504C1.30091 14.2504 1.11003 14.1714 0.969304 14.0306C0.828573 13.8899 0.749512 13.699 0.749512 13.5C0.749512 13.301 0.828573 13.1101 0.969304 12.9694L11.6896 2.25H3.74993C3.55102 2.25 3.36025 2.17098 3.2196 2.03033C3.07895 1.88968 2.99993 1.69891 2.99993 1.5C2.99993 1.30109 3.07895 1.11032 3.2196 0.96967C3.36025 0.829018 3.55102 0.75 3.74993 0.75H13.4999C13.6988 0.75 13.8896 0.829018 14.0303 0.96967C14.1709 1.11032 14.2499 1.30109 14.2499 1.5Z" fill="#2C2C2C"/>
</svg>
