<svg width="17" height="21" viewBox="0 0 17 21" fill="none" xmlns="http://www.w3.org/2000/svg">
<path d="M15.5 2H14V1.25C14 1.05109 13.921 0.860322 13.7803 0.71967C13.6397 0.579018 13.4489 0.5 13.25 0.5C13.0511 0.5 12.8603 0.579018 12.7197 0.71967C12.579 0.860322 12.5 1.05109 12.5 1.25V2H9.5V1.25C9.5 1.05109 9.42098 0.860322 9.28033 0.71967C9.13968 0.579018 8.94891 0.5 8.75 0.5C8.55109 0.5 8.36032 0.579018 8.21967 0.71967C8.07902 0.860322 8 1.05109 8 1.25V2H5V1.25C5 1.05109 4.92098 0.860322 4.78033 0.71967C4.63968 0.579018 4.44891 0.5 4.25 0.5C4.05109 0.5 3.86032 0.579018 3.71967 0.71967C3.57902 0.860322 3.5 1.05109 3.5 1.25V2H2C1.60218 2 1.22064 2.15804 0.93934 2.43934C0.658035 2.72064 0.5 3.10218 0.5 3.5V17.75C0.5 18.5456 0.81607 19.3087 1.37868 19.8713C1.94129 20.4339 2.70435 20.75 3.5 20.75H14C14.7956 20.75 15.5587 20.4339 16.1213 19.8713C16.6839 19.3087 17 18.5456 17 17.75V3.5C17 3.10218 16.842 2.72064 16.5607 2.43934C16.2794 2.15804 15.8978 2 15.5 2ZM11.75 14.75H5.75C5.55109 14.75 5.36032 14.671 5.21967 14.5303C5.07902 14.3897 5 14.1989 5 14C5 13.8011 5.07902 13.6103 5.21967 13.4697C5.36032 13.329 5.55109 13.25 5.75 13.25H11.75C11.9489 13.25 12.1397 13.329 12.2803 13.4697C12.421 13.6103 12.5 13.8011 12.5 14C12.5 14.1989 12.421 14.3897 12.2803 14.5303C12.1397 14.671 11.9489 14.75 11.75 14.75ZM11.75 11.75H5.75C5.55109 11.75 5.36032 11.671 5.21967 11.5303C5.07902 11.3897 5 11.1989 5 11C5 10.8011 5.07902 10.6103 5.21967 10.4697C5.36032 10.329 5.55109 10.25 5.75 10.25H11.75C11.9489 10.25 12.1397 10.329 12.2803 10.4697C12.421 10.6103 12.5 10.8011 12.5 11C12.5 11.1989 12.421 11.3897 12.2803 11.5303C12.1397 11.671 11.9489 11.75 11.75 11.75Z" fill="#2C2C2C"/>
</svg>
