<svg width="38" height="28" viewBox="0 0 38 28" fill="none" xmlns="http://www.w3.org/2000/svg">
<path d="M9.01877 16.0937C9.02301 16.1784 9.00998 16.2631 8.98047 16.3425C8.95096 16.422 8.9056 16.4946 8.84714 16.556C8.78867 16.6174 8.71833 16.6663 8.64039 16.6996C8.56245 16.733 8.47854 16.7501 8.39377 16.75H1.50002C1.21789 16.7504 0.943906 16.6554 0.722632 16.4804C0.501358 16.3053 0.345805 16.0606 0.281267 15.7859C0.241081 15.5979 0.242934 15.4034 0.286692 15.2162C0.330451 15.029 0.415034 14.8538 0.534392 14.7031C1.63722 13.2406 3.10047 12.089 4.78127 11.3609C4.04334 10.6881 3.47737 9.84829 3.13076 8.91177C2.78415 7.97525 2.66699 6.96931 2.7891 5.9782C2.91121 4.98709 3.26902 4.03967 3.83258 3.21528C4.39613 2.39089 5.14902 1.71355 6.02819 1.23997C6.90735 0.766386 7.8872 0.510363 8.88565 0.49334C9.88411 0.476317 10.8721 0.698788 11.7669 1.14212C12.6617 1.58546 13.4373 2.23674 14.0286 3.04144C14.6199 3.84614 15.0098 4.78081 15.1656 5.76718C15.1858 5.89982 15.162 6.03541 15.098 6.15331C15.034 6.2712 14.9332 6.36496 14.811 6.42031C13.0772 7.22183 11.6089 8.50256 10.5792 10.1114C9.54962 11.7202 9.00166 13.5899 9.00002 15.5C9.00002 15.7 9.00002 15.8969 9.01877 16.0937ZM37.4563 14.7016C36.356 13.2407 34.8961 12.0898 33.2188 11.3609C33.9567 10.6881 34.5227 9.84829 34.8693 8.91177C35.2159 7.97525 35.333 6.96931 35.2109 5.9782C35.0888 4.98709 34.731 4.03967 34.1675 3.21528C33.6039 2.39089 32.851 1.71355 31.9718 1.23997C31.0927 0.766386 30.1128 0.510363 29.1144 0.49334C28.1159 0.476317 27.1279 0.698788 26.2331 1.14212C25.3383 1.58546 24.5628 2.23674 23.9714 3.04144C23.3801 3.84614 22.9902 4.78081 22.8344 5.76718C22.8143 5.89982 22.838 6.03541 22.9021 6.15331C22.9661 6.2712 23.0669 6.36496 23.1891 6.42031C24.9228 7.22183 26.3912 8.50256 27.4208 10.1114C28.4504 11.7202 28.9984 13.5899 29 15.5C29 15.7 29 15.8969 28.9813 16.0937C28.977 16.1784 28.9901 16.2631 29.0196 16.3425C29.0491 16.422 29.0944 16.4946 29.1529 16.556C29.2114 16.6174 29.2817 16.6663 29.3596 16.6996C29.4376 16.733 29.5215 16.7501 29.6063 16.75H36.5C36.7822 16.7504 37.0561 16.6554 37.2774 16.4804C37.4987 16.3053 37.6542 16.0606 37.7188 15.7859C37.7592 15.5976 37.7573 15.4026 37.7133 15.2151C37.6692 15.0276 37.5841 14.8522 37.4641 14.7016H37.4563ZM23.55 21.4484C24.7946 20.4953 25.7093 19.176 26.1654 17.6762C26.6215 16.1763 26.5962 14.5713 26.093 13.0865C25.5897 11.6018 24.6339 10.3121 23.3599 9.39869C22.0858 8.48526 20.5575 7.99402 18.9899 7.99402C17.4222 7.99402 15.8939 8.48526 14.6199 9.39869C13.3458 10.3121 12.39 11.6018 11.8868 13.0865C11.3835 14.5713 11.3582 16.1763 11.8143 17.6762C12.2705 19.176 13.1851 20.4953 14.4297 21.4484C12.2212 22.4054 10.377 24.0442 9.1672 26.125C9.05748 26.315 8.99972 26.5306 8.99974 26.7501C8.99975 26.9695 9.05753 27.1851 9.16728 27.3751C9.27702 27.5651 9.43486 27.7229 9.62492 27.8326C9.81498 27.9423 10.0306 28 10.25 28H27.75C27.9695 28 28.1851 27.9423 28.3751 27.8326C28.5652 27.7229 28.723 27.5651 28.8328 27.3751C28.9425 27.1851 29.0003 26.9695 29.0003 26.7501C29.0003 26.5306 28.9426 26.315 28.8328 26.125C27.6204 24.0428 25.7728 22.4039 23.561 21.4484H23.55Z" fill="#101010"/>
</svg>
