<svg width="20" height="15" viewBox="0 0 20 15" fill="none" xmlns="http://www.w3.org/2000/svg">
<path d="M19 0H1C0.801088 0 0.610322 0.0790178 0.46967 0.21967C0.329018 0.360322 0.25 0.551088 0.25 0.75V13.5C0.25 13.8978 0.408035 14.2794 0.68934 14.5607C0.970644 14.842 1.35218 15 1.75 15H18.25C18.6478 15 19.0294 14.842 19.3107 14.5607C19.592 14.2794 19.75 13.8978 19.75 13.5V0.75C19.75 0.551088 19.671 0.360322 19.5303 0.21967C19.3897 0.0790178 19.1989 0 19 0ZM18.25 13.5H1.75V2.45531L9.49281 9.55312C9.63118 9.68014 9.81217 9.75062 10 9.75062C10.1878 9.75062 10.3688 9.68014 10.5072 9.55312L18.25 2.45531V13.5Z" fill="#070707"/>
</svg>
