<svg width="18" height="21" viewBox="0 0 18 21" fill="none" xmlns="http://www.w3.org/2000/svg">
<path d="M9 0C6.81273 0.00248131 4.71575 0.872472 3.16911 2.41911C1.62247 3.96575 0.752481 6.06273 0.75 8.25C0.75 15.3094 8.25 20.6409 8.56969 20.8641C8.69579 20.9524 8.84603 20.9998 9 20.9998C9.15397 20.9998 9.30421 20.9524 9.43031 20.8641C9.75 20.6409 17.25 15.3094 17.25 8.25C17.2475 6.06273 16.3775 3.96575 14.8309 2.41911C13.2843 0.872472 11.1873 0.00248131 9 0ZM9 5.25C9.59334 5.25 10.1734 5.42595 10.6667 5.75559C11.1601 6.08524 11.5446 6.55377 11.7716 7.10195C11.9987 7.65013 12.0581 8.25333 11.9424 8.83527C11.8266 9.41721 11.5409 9.95176 11.1213 10.3713C10.7018 10.7909 10.1672 11.0766 9.58527 11.1924C9.00333 11.3081 8.40013 11.2487 7.85195 11.0216C7.30377 10.7946 6.83524 10.4101 6.50559 9.91671C6.17595 9.42336 6 8.84334 6 8.25C6 7.45435 6.31607 6.69129 6.87868 6.12868C7.44129 5.56607 8.20435 5.25 9 5.25Z" fill="#2C2C2C"/>
</svg>
