<svg width="14" height="19" viewBox="0 0 14 19" fill="none" xmlns="http://www.w3.org/2000/svg">
<path d="M12.25 0H1.75C1.35218 0 0.970644 0.158035 0.68934 0.43934C0.408035 0.720644 0.25 1.10218 0.25 1.5V18C0.250067 18.1338 0.285951 18.2652 0.353929 18.3805C0.421907 18.4958 0.519503 18.5908 0.636587 18.6557C0.753672 18.7206 0.885979 18.7529 1.01978 18.7494C1.15358 18.7458 1.284 18.7066 1.3975 18.6356L7 15.1341L12.6034 18.6356C12.7169 18.7063 12.8472 18.7454 12.9809 18.7488C13.1146 18.7522 13.2467 18.7198 13.3636 18.655C13.4806 18.5902 13.5781 18.4953 13.646 18.3801C13.7139 18.2649 13.7498 18.1337 13.75 18V1.5C13.75 1.10218 13.592 0.720644 13.3107 0.43934C13.0294 0.158035 12.6478 0 12.25 0ZM7.39656 13.6144C7.27736 13.5399 7.13963 13.5004 6.99906 13.5004C6.8585 13.5004 6.72076 13.5399 6.60156 13.6144L1.75 16.6472V13.9153L7 10.6341L12.25 13.9153V16.6472L7.39656 13.6144Z" fill="#101010"/>
</svg>
