<svg width="60" height="52" viewBox="0 0 60 52" fill="none" xmlns="http://www.w3.org/2000/svg">
<path fill-rule="evenodd" clip-rule="evenodd" d="M20.3586 48.7917L22.1092 50.652H22.113V48.9139C22.113 48.8715 22.1467 48.8341 22.1928 48.8341H22.5804C22.6222 48.8341 22.6602 48.8715 22.6602 48.9139V51.7464C22.6602 51.7876 22.6222 51.8213 22.5804 51.8213H22.4794L20.7207 49.8899H20.7158V51.6997C20.7158 51.7415 20.6827 51.7795 20.636 51.7795H20.2533C20.2115 51.7795 20.1735 51.7415 20.1735 51.6997V48.8672C20.1735 48.8248 20.2115 48.7917 20.2533 48.7917H20.3586ZM51.4156 48.8341C51.4623 48.8341 51.4954 48.8715 51.4954 48.9139V49.2586C51.4954 49.3009 51.4623 49.3384 51.4156 49.3384H50.1703V50.0289H51.2099C51.2522 50.0289 51.2896 50.0663 51.2896 50.1087V50.4582C51.2896 50.5044 51.2522 50.538 51.2099 50.538H50.1703V51.2741H51.4156C51.4623 51.2741 51.4954 51.3127 51.4954 51.355V51.6997C51.4954 51.7415 51.4623 51.7795 51.4156 51.7795H49.7035C49.6568 51.7795 49.6237 51.7415 49.6237 51.6997V48.9139C49.6237 48.8715 49.6568 48.8341 49.7035 48.8341H51.4156ZM45.5968 48.8341C45.643 48.8341 45.6766 48.8715 45.6766 48.9139V49.2586C45.6766 49.3009 45.643 49.3384 45.5968 49.3384H44.3516V50.1304H45.3905C45.4323 50.1304 45.4709 50.1678 45.4709 50.2102V50.5549C45.4709 50.5972 45.4323 50.6347 45.3905 50.6347H44.3516V51.6997C44.3516 51.7415 44.313 51.7795 44.2712 51.7795H43.8842C43.838 51.7795 43.8044 51.7415 43.8044 51.6997V48.9139C43.8044 48.8715 43.838 48.8341 43.8842 48.8341H45.5968ZM39.5115 48.8341C39.5538 48.8341 39.5913 48.8715 39.5913 48.9139V51.6997C39.5913 51.7415 39.5538 51.7795 39.5115 51.7795H39.1201C39.0777 51.7795 39.0403 51.7415 39.0403 51.6997V48.9139C39.0403 48.8715 39.0777 48.8341 39.1201 48.8341H39.5115ZM28.6644 48.8341C28.7105 48.8341 28.7442 48.8715 28.7442 48.9139V49.2586C28.7442 49.3009 28.7105 49.3384 28.6644 49.3384H27.4191V50.0289H28.4581C28.4999 50.0289 28.5385 50.0663 28.5385 50.1087V50.4582C28.5385 50.5044 28.4999 50.538 28.4581 50.538H27.4191V51.2741H28.6644C28.7105 51.2741 28.7442 51.3127 28.7442 51.355V51.6997C28.7442 51.7415 28.7105 51.7795 28.6644 51.7795H26.9518C26.9056 51.7795 26.872 51.7415 26.872 51.6997V48.9139C26.872 48.8715 26.9056 48.8341 26.9518 48.8341H28.6644ZM16.0457 48.8341C16.0919 48.8341 16.1255 48.8715 16.1255 48.9139V49.2586C16.1255 49.3009 16.0919 49.3384 16.0457 49.3384H14.8005V50.0289H15.8395C15.8813 50.0289 15.9198 50.0663 15.9198 50.1087V50.4582C15.9198 50.5044 15.8813 50.538 15.8395 50.538H14.8005V51.2741H16.0457C16.0919 51.2741 16.1255 51.3127 16.1255 51.355V51.6997C16.1255 51.7415 16.0919 51.7795 16.0457 51.7795H14.3331C14.287 51.7795 14.2533 51.7415 14.2533 51.6997V48.9139C14.2533 48.8715 14.287 48.8341 14.3331 48.8341H16.0457ZM10.2894 48.8341C10.3355 48.8341 10.3692 48.8715 10.3692 48.9139V49.2586C10.3692 49.3009 10.3355 49.3384 10.2894 49.3384H9.6456V51.6997C9.6456 51.7415 9.6076 51.7795 9.56526 51.7795H9.17442C9.13208 51.7795 9.09408 51.7415 9.09408 51.6997V49.3384H8.45028C8.40413 49.3384 8.37048 49.3009 8.37048 49.2586V48.9139C8.37048 48.8715 8.40413 48.8341 8.45028 48.8341H10.2894ZM34.0751 48.8342C34.5805 48.8342 34.9925 49.2381 34.9925 49.7391C34.9925 50.1256 34.7357 50.441 34.3698 50.5881L34.9463 51.6575C34.9762 51.7118 34.9463 51.7791 34.8752 51.7791H34.4328C34.3953 51.7791 34.3742 51.7584 34.3655 51.7416L33.8058 50.6266H33.339V51.6993C33.339 51.7416 33.3015 51.7791 33.2592 51.7791H32.8716C32.8255 51.7791 32.7918 51.7416 32.7918 51.6993V48.914C32.7918 48.8716 32.8255 48.8342 32.8716 48.8342H34.0751ZM34.0289 49.3385H33.3433V50.1761H34.0289C34.252 50.1761 34.4458 49.9823 34.4458 49.7472C34.4458 49.5236 34.252 49.3385 34.0289 49.3385ZM60 45.7925V46.0243H0.0285535V45.7925H60ZM21.1747 37.3511V37.4271C21.1036 37.4375 21.0276 37.4526 20.9467 37.4733C20.8653 37.4928 20.792 37.5254 20.7264 37.5672C20.6601 37.6106 20.6048 37.6703 20.5592 37.7458C20.5136 37.8223 20.4886 37.9184 20.4832 38.0351C20.4783 38.167 20.4745 38.2826 20.4718 38.3842C20.469 38.4857 20.468 38.5845 20.468 38.6805V40.1929C20.468 40.3091 20.469 40.422 20.4718 40.5305C20.4745 40.6402 20.4756 40.7553 20.4756 40.8763C20.4804 41.1445 20.5212 41.3898 20.5972 41.6097C20.6732 41.8295 20.7796 42.0174 20.9163 42.1715C21.0531 42.3268 21.2198 42.4451 21.4174 42.5287C21.6155 42.6123 21.8408 42.6546 22.0938 42.6546C22.3825 42.6546 22.6268 42.6215 22.8266 42.5559C23.0269 42.4902 23.1946 42.3984 23.3287 42.2817C23.4628 42.165 23.5692 42.0315 23.6479 41.88C23.7261 41.7269 23.7841 41.5657 23.8221 41.3931C23.8607 41.221 23.8857 41.0451 23.8981 40.8655C23.9106 40.6852 23.9177 40.5088 23.9177 40.3367V39.0459C23.9177 38.9444 23.9161 38.8401 23.9133 38.7343C23.9106 38.6273 23.9074 38.5258 23.9025 38.4298C23.8971 38.3342 23.8895 38.2441 23.8791 38.1605C23.8688 38.0764 23.8536 38.0101 23.8335 37.9586C23.7831 37.8169 23.6957 37.7018 23.5714 37.6133C23.4476 37.5254 23.2641 37.4624 23.0209 37.4271V37.3511H24.9051V37.4271C24.7173 37.4526 24.5691 37.501 24.4605 37.5721C24.3514 37.6426 24.2667 37.7512 24.2059 37.8989C24.1907 37.9336 24.1772 37.9917 24.1641 38.0726C24.1511 38.1545 24.1402 38.2479 24.1305 38.3538C24.1202 38.4607 24.112 38.5725 24.1071 38.6919C24.1017 38.8114 24.0995 38.9292 24.0995 39.0459C24.0941 39.263 24.0881 39.5062 24.0805 39.7749C24.0735 40.0431 24.0643 40.3476 24.0539 40.6869C24.0491 40.7829 24.0425 40.904 24.0349 41.0511C24.0273 41.1982 24.0035 41.354 23.9627 41.5179C23.9226 41.683 23.858 41.8474 23.7689 42.0125C23.6805 42.1769 23.5551 42.3268 23.3933 42.4609C23.231 42.5955 23.0236 42.7013 22.7701 42.7795C22.5166 42.8582 22.205 42.8978 21.8354 42.8978C21.4711 42.8978 21.1628 42.8593 20.9125 42.7838C20.6618 42.7073 20.4549 42.6052 20.2932 42.4761C20.1309 42.3463 20.006 42.2046 19.917 42.0505C19.8285 41.8958 19.7628 41.7443 19.7194 41.5945C19.6765 41.4452 19.651 41.3079 19.6434 41.1841C19.6358 41.0603 19.6325 40.9675 19.6325 40.9067C19.6325 40.765 19.6331 40.5799 19.6358 40.3519C19.6385 40.1239 19.6396 39.871 19.6396 39.5925V38.3087C19.6396 38.2175 19.6358 38.1328 19.6282 38.0541C19.6206 37.9759 19.6097 37.9048 19.594 37.8413C19.5788 37.7784 19.556 37.729 19.5261 37.6931C19.4545 37.6068 19.3676 37.5449 19.264 37.5075C19.1597 37.4684 19.0419 37.4423 18.91 37.4271V37.3511H21.1747ZM58.0917 37.2674C58.3197 37.2674 58.5145 37.2864 58.6768 37.3249C58.8386 37.3629 58.9721 37.4042 59.0753 37.4498C59.1795 37.4954 59.2577 37.5377 59.3114 37.5752C59.3646 37.6132 59.3934 37.6322 59.3988 37.6322C59.414 37.6322 59.4455 37.6012 59.4938 37.5415C59.5416 37.4802 59.5861 37.4194 59.6268 37.3591H59.7099V38.764H59.6268C59.5655 38.5968 59.4873 38.4307 59.3912 38.2667C59.2946 38.1023 59.1833 37.9552 59.0568 37.826C58.9298 37.6968 58.7854 37.5915 58.6242 37.5106C58.4613 37.4302 58.2817 37.3884 58.0846 37.3884C57.9272 37.3884 57.779 37.4118 57.64 37.4579C57.5 37.5024 57.3789 37.5719 57.2747 37.6626C57.1716 37.7543 57.0896 37.8661 57.0326 38.0007C56.974 38.1348 56.9441 38.2879 56.9441 38.4605C56.9441 38.7287 57.025 38.9442 57.1868 39.106C57.3491 39.2683 57.5586 39.3975 57.8159 39.4935C57.9174 39.5343 58.0119 39.5701 58.1003 39.5999C58.1883 39.6303 58.2757 39.6597 58.362 39.6879C58.4478 39.7156 58.5352 39.7443 58.6231 39.7747C58.7121 39.8051 58.8033 39.8382 58.8994 39.8735C59.2436 40 59.5101 40.184 59.6995 40.4245C59.889 40.665 59.984 40.9652 59.984 41.3251C59.984 41.5672 59.9346 41.7854 59.8358 41.9787C59.737 42.1708 59.5997 42.3348 59.4254 42.4721C59.2506 42.6089 59.0411 42.7099 58.7979 42.7755C58.5558 42.8412 58.2892 42.8743 58.001 42.8743C57.7524 42.8743 57.5396 42.8591 57.3626 42.8287C57.1851 42.7989 57.0386 42.762 56.9218 42.7191C56.8051 42.6762 56.7183 42.6366 56.6597 42.6013C56.6016 42.5655 56.5647 42.5475 56.5495 42.5475C56.5343 42.5475 56.5012 42.5779 56.4507 42.6393C56.4002 42.7001 56.3546 42.7587 56.3144 42.8141H56.246L56.2227 41.3017H56.2987C56.3448 41.4391 56.4024 41.5721 56.474 41.7013C56.544 41.8294 56.6222 41.9515 56.7058 42.0655C56.7889 42.1795 56.8768 42.2794 56.9712 42.3652C57.0646 42.4515 57.1542 42.5171 57.2405 42.5627C57.3268 42.6089 57.4408 42.6545 57.5825 42.7001C57.7247 42.7451 57.861 42.7685 57.9929 42.7685C58.368 42.7685 58.6714 42.6653 58.9048 42.4607C59.1372 42.255 59.2539 41.9787 59.2539 41.6285C59.2539 41.4868 59.2316 41.3625 59.186 41.2561C59.1399 41.1497 59.078 41.0575 58.9998 40.9793C58.9211 40.9006 58.8288 40.8333 58.7224 40.7774C58.616 40.722 58.502 40.6715 58.3805 40.6259C58.2583 40.5798 58.1525 40.5423 58.0613 40.5119C57.9706 40.481 57.8854 40.4522 57.8072 40.4245C57.728 40.3968 57.6471 40.3691 57.564 40.3409C57.4804 40.3132 57.38 40.2763 57.2638 40.2307C57.1319 40.1802 57.0054 40.1102 56.8844 40.0217C56.7623 39.9327 56.6564 39.8296 56.5647 39.7101C56.474 39.5918 56.4002 39.4599 56.3448 39.315C56.2884 39.1706 56.2612 39.018 56.2612 38.8557C56.2612 38.5816 56.3106 38.3465 56.4105 38.1489C56.5109 37.9514 56.6445 37.7874 56.8133 37.6555C56.9821 37.5236 57.1759 37.4253 57.3968 37.3629C57.6167 37.2989 57.8485 37.2674 58.0917 37.2674ZM34.6377 37.2674C34.8651 37.2674 35.0605 37.2864 35.2223 37.3249C35.3846 37.3629 35.5171 37.4042 35.6213 37.4498C35.725 37.4954 35.8037 37.5377 35.8563 37.5752C35.9101 37.6132 35.9394 37.6322 35.9443 37.6322C35.9595 37.6322 35.991 37.6012 36.0393 37.5415C36.087 37.4802 36.131 37.4194 36.1723 37.3591H36.2559V38.764H36.1723C36.1109 38.5968 36.0328 38.4307 35.9367 38.2667C35.8406 38.1023 35.7288 37.9552 35.6023 37.826C35.4753 37.6968 35.3309 37.5915 35.1691 37.5106C35.0068 37.4302 34.8277 37.3884 34.6301 37.3884C34.4726 37.3884 34.3244 37.4118 34.1849 37.4579C34.046 37.5024 33.9244 37.5719 33.8207 37.6626C33.7165 37.7543 33.6356 37.8661 33.5775 38.0007C33.5189 38.1348 33.4901 38.2879 33.4901 38.4605C33.4901 38.7287 33.571 38.9442 33.7328 39.106C33.8945 39.2683 34.1041 39.3975 34.3614 39.4935C34.4623 39.5343 34.5573 39.5701 34.6458 39.5999C34.7343 39.6303 34.8211 39.6597 34.9075 39.6879C34.9932 39.7156 35.0801 39.7443 35.1686 39.7747C35.257 39.8051 35.3493 39.8382 35.4454 39.8735C35.789 40 36.0556 40.184 36.245 40.4245C36.4345 40.665 36.5289 40.9652 36.5289 41.3251C36.5289 41.5672 36.4795 41.7854 36.3807 41.9787C36.2819 42.1708 36.1457 42.3348 35.9703 42.4721C35.7961 42.6089 35.5871 42.7099 35.3439 42.7755C35.1007 42.8412 34.8353 42.8743 34.5459 42.8743C34.2979 42.8743 34.0851 42.8591 33.9081 42.8287C33.7306 42.7989 33.5835 42.762 33.4673 42.7191C33.3506 42.6762 33.2632 42.6366 33.2051 42.6013C33.147 42.5655 33.1101 42.5475 33.0949 42.5475C33.0797 42.5475 33.0466 42.5779 32.9961 42.6393C32.9456 42.7001 32.9001 42.7587 32.8599 42.8141H32.7909L32.7681 41.3017H32.8447C32.8897 41.4391 32.9484 41.5721 33.0189 41.7013C33.09 41.8294 33.1671 41.9515 33.2507 42.0655C33.3343 42.1795 33.4228 42.2794 33.5167 42.3652C33.6101 42.4515 33.7002 42.5171 33.7865 42.5627C33.8723 42.6089 33.9863 42.6545 34.1279 42.7001C34.2702 42.7451 34.407 42.7685 34.5383 42.7685C34.9129 42.7685 35.2174 42.6653 35.4503 42.4607C35.6832 42.255 35.7993 41.9787 35.7993 41.6285C35.7993 41.4868 35.7771 41.3625 35.7315 41.2561C35.6853 41.1497 35.6235 41.0575 35.5453 40.9793C35.4666 40.9006 35.3743 40.8333 35.2679 40.7774C35.1615 40.722 35.0475 40.6715 34.9259 40.6259C34.8043 40.5798 34.6979 40.5423 34.6073 40.5119C34.5161 40.481 34.4308 40.4522 34.3527 40.4245C34.274 40.3968 34.1925 40.3691 34.1095 40.3409C34.0259 40.3132 33.9255 40.2763 33.8088 40.2307C33.6774 40.1802 33.5509 40.1102 33.4293 40.0217C33.3077 39.9327 33.2013 39.8296 33.1101 39.7101C33.0189 39.5918 32.9456 39.4599 32.8897 39.315C32.8344 39.1706 32.8061 39.018 32.8061 38.8557C32.8061 38.5816 32.8561 38.3465 32.956 38.1489C33.0558 37.9514 33.1899 37.7874 33.3587 37.6555C33.5276 37.5236 33.7219 37.4253 33.9423 37.3629C34.1627 37.2989 34.3945 37.2674 34.6377 37.2674ZM44.5905 37.2754C45.0209 37.2754 45.4074 37.3509 45.7489 37.5029C46.0909 37.6554 46.3807 37.859 46.619 38.1152C46.8573 38.3709 47.0392 38.6651 47.1662 39C47.2927 39.3338 47.3557 39.684 47.3557 40.0488C47.3557 40.4532 47.2802 40.8288 47.1282 41.1724C46.9762 41.5171 46.7694 41.8162 46.5088 42.0692C46.2483 42.3222 45.9443 42.517 45.5974 42.6544C45.2505 42.7912 44.882 42.859 44.4917 42.859C44.1068 42.859 43.742 42.7928 43.3973 42.6582C43.0531 42.5241 42.7519 42.3341 42.4935 42.0882C42.2351 41.8428 42.0315 41.5486 41.8817 41.2066C41.7324 40.8652 41.6581 40.4895 41.6581 40.0792C41.6581 39.6427 41.7362 39.2524 41.8936 38.905C42.05 38.5581 42.2622 38.2639 42.5277 38.0234C42.7937 37.783 43.1053 37.5979 43.4624 37.4687C43.8196 37.3395 44.1958 37.2754 44.5905 37.2754ZM15.2255 37.2367C15.5295 37.2367 15.7955 37.2649 16.0235 37.3203C16.2515 37.3762 16.4409 37.437 16.5935 37.5027C16.7449 37.5689 16.8616 37.6303 16.9431 37.6856C17.0239 37.7415 17.0695 37.7692 17.0793 37.7692C17.0896 37.7692 17.1086 37.7578 17.1363 37.735C17.1645 37.7117 17.1949 37.684 17.2275 37.6509C17.2606 37.6183 17.2948 37.5809 17.3301 37.5374C17.3659 37.4946 17.3985 37.4495 17.4289 37.4039H17.5125V39.1057L17.4213 39.1138C17.3556 38.8706 17.2568 38.6427 17.1254 38.4299C16.993 38.2171 16.8377 38.0325 16.6581 37.8751C16.4778 37.7182 16.2754 37.5944 16.0501 37.5027C15.8243 37.412 15.5854 37.3664 15.3319 37.3664C14.9823 37.3664 14.6707 37.4452 14.3977 37.6015C14.1241 37.7584 13.895 37.9668 13.7099 38.2247C13.5254 38.4831 13.3831 38.7756 13.2843 39.1024C13.1855 39.4292 13.1361 39.7647 13.1361 40.1089C13.1361 40.4742 13.1883 40.8162 13.2919 41.1348C13.3956 41.454 13.5438 41.7308 13.7365 41.967C13.9292 42.202 14.1621 42.3888 14.4357 42.525C14.7093 42.6618 15.0127 42.7297 15.3471 42.7297C15.6104 42.7297 15.8579 42.6824 16.0881 42.5864C16.3188 42.4903 16.524 42.3627 16.7031 42.2058C16.8833 42.0495 17.0348 41.8682 17.1591 41.6625C17.2834 41.4578 17.3686 41.2461 17.4137 41.029H17.5049L17.4821 42.7004H17.3909C17.3301 42.614 17.2671 42.5353 17.2009 42.4642C17.1352 42.3931 17.0896 42.3584 17.0641 42.3584C17.0543 42.3584 17.0087 42.3844 16.9279 42.4382C16.8464 42.4908 16.7303 42.5494 16.5783 42.6124C16.4263 42.6759 16.2412 42.7318 16.0235 42.7791C15.8058 42.8279 15.5545 42.8518 15.2717 42.8518C14.8005 42.8518 14.3749 42.7845 13.9949 42.651C13.6149 42.5163 13.2919 42.3269 13.0265 42.081C12.7605 41.8351 12.5564 41.5414 12.4147 41.1994C12.273 40.8574 12.2019 40.4812 12.2019 40.0709C12.2019 39.9802 12.2084 39.876 12.2209 39.7593C12.2334 39.6426 12.2562 39.5188 12.2893 39.3869C12.3224 39.2561 12.3675 39.1176 12.4261 38.9732C12.4842 38.8283 12.5591 38.6834 12.6503 38.5368C12.7567 38.3642 12.8881 38.1992 13.0455 38.0423C13.2024 37.8859 13.3875 37.7475 13.6003 37.6281C13.8131 37.5098 14.053 37.4148 14.3217 37.3436C14.5904 37.2731 14.8911 37.2367 15.2255 37.2367ZM50.1817 37.3512L53.7834 41.5603V38.9764C53.7834 38.7745 53.7807 38.5807 53.7753 38.3961C53.771 38.211 53.7476 38.0656 53.7074 37.9586C53.6564 37.8169 53.5663 37.7019 53.4377 37.6134C53.3085 37.5249 53.1223 37.4625 52.8791 37.4272V37.3512H54.7633V37.4272C54.5765 37.4527 54.4256 37.501 54.3116 37.5716C54.1976 37.6427 54.1102 37.7513 54.0494 37.8984C54.0142 37.9738 53.9908 38.115 53.981 38.3196C53.9713 38.5253 53.9604 38.7441 53.9506 38.9764C53.9409 39.1947 53.9316 39.4514 53.9246 39.7478C53.9164 40.0447 53.9126 40.3629 53.9126 40.7021V41.1874C53.9126 41.3655 53.9137 41.5468 53.9164 41.7308C53.9192 41.9164 53.9208 42.0999 53.9208 42.2818V42.7758C53.9208 42.7964 53.9137 42.8127 53.9012 42.8252C53.8888 42.8376 53.8698 42.8442 53.8437 42.8442C53.8035 42.8442 53.7574 42.8186 53.7074 42.7687C53.2764 42.272 52.884 41.816 52.5295 41.4002C52.175 40.9855 51.8368 40.5887 51.5155 40.2119C51.1936 39.8341 50.8782 39.4661 50.5693 39.1062C50.2604 38.7468 49.9337 38.3744 49.5895 37.989V41.1956C49.5895 41.4545 49.5955 41.6868 49.6079 41.8942C49.6204 42.1026 49.6525 42.2568 49.7035 42.3583C49.7589 42.475 49.8463 42.5619 49.9651 42.6205C50.0846 42.6786 50.248 42.7198 50.4553 42.7454V42.8214H48.5863V42.7454C48.7079 42.7296 48.8295 42.6987 48.9511 42.6509C49.0727 42.6026 49.1688 42.5228 49.2394 42.411C49.3105 42.3046 49.3561 42.1482 49.3767 41.9398C49.3968 41.7324 49.412 41.4838 49.4223 41.1956C49.4321 40.9779 49.4397 40.7211 49.4446 40.4247C49.4494 40.1283 49.4522 39.8108 49.4522 39.4715V38.5438C49.4522 38.4428 49.4494 38.3185 49.4446 38.1714C49.4299 38.0254 49.3941 37.9049 49.3382 37.8104C49.2828 37.7171 49.2171 37.6438 49.1411 37.5906C49.0651 37.5379 48.9826 37.4994 48.8941 37.4766C48.8056 37.4532 48.7204 37.437 48.6395 37.4272V37.3512H50.1817ZM8.36543 37.351V37.4275C8.2992 37.4319 8.22321 37.4427 8.13744 37.4579C8.05113 37.4731 7.97242 37.4927 7.90185 37.5182C7.83074 37.5442 7.76994 37.579 7.71946 37.6246C7.66843 37.6707 7.64346 37.7288 7.64346 37.7999C7.64346 37.871 7.67874 37.9644 7.74986 38.0811C7.82097 38.1973 7.90185 38.3216 7.9925 38.4524C8.11952 38.6353 8.24872 38.8215 8.38063 39.011C8.51199 39.201 8.67159 39.43 8.85887 39.6982C9.0266 39.5066 9.19706 39.2965 9.37185 39.0685C9.54664 38.8405 9.69972 38.6429 9.83163 38.4757C9.89243 38.3949 9.95811 38.2933 10.0292 38.1717C10.0998 38.0501 10.1356 37.9486 10.1356 37.8683C10.1356 37.7972 10.1112 37.7364 10.0634 37.6859C10.0151 37.6349 9.95703 37.5914 9.88863 37.5567C9.82023 37.5209 9.74532 37.4927 9.66444 37.4731C9.58355 37.4525 9.50973 37.4373 9.44405 37.4275V37.351H11.427V37.4275C11.1686 37.4829 10.9406 37.5936 10.7431 37.7576C10.5455 37.922 10.3354 38.1392 10.1123 38.4073C10.0265 38.5088 9.93151 38.6228 9.82729 38.7488C9.72361 38.8763 9.61884 39.0028 9.51244 39.1293C9.40605 39.2558 9.30453 39.379 9.20845 39.4973C9.11183 39.6168 9.0266 39.7215 8.95006 39.8122L8.9853 39.8637C9.00845 39.8967 9.03985 39.9406 9.07926 39.9957C9.14549 40.0863 9.22094 40.1949 9.30725 40.3214C9.39356 40.4489 9.48693 40.5836 9.58844 40.728C9.68995 40.8724 9.78712 41.0108 9.88103 41.1427C9.97494 41.2741 10.0596 41.3935 10.1356 41.4993C10.2111 41.6057 10.267 41.6866 10.3023 41.7425C10.4038 41.8896 10.4961 42.0215 10.5797 42.1377C10.6633 42.2539 10.7458 42.3538 10.8266 42.4379C10.9081 42.5215 10.9911 42.5899 11.0774 42.6431C11.1638 42.6957 11.2598 42.7299 11.3662 42.7451V42.8217H8.90447V42.7451C8.97558 42.7354 9.05158 42.7234 9.133 42.7109C9.21334 42.6985 9.28934 42.6795 9.36045 42.6545C9.43102 42.6295 9.48964 42.5937 9.53524 42.5475C9.58084 42.503 9.60364 42.4444 9.60364 42.3733C9.60364 42.3027 9.57107 42.2072 9.50484 42.0883C9.43862 41.9694 9.36316 41.844 9.27685 41.7121C9.16014 41.5297 9.02715 41.3311 8.87841 41.1161C8.72859 40.9006 8.55759 40.659 8.36543 40.3903C8.284 40.4864 8.19552 40.5923 8.0989 40.709C8.00282 40.8257 7.90673 40.9435 7.81065 41.0629C7.71457 41.1812 7.62174 41.2974 7.53326 41.4087C7.44478 41.52 7.36987 41.6188 7.30907 41.7045C7.23796 41.806 7.17499 41.9075 7.11908 42.008C7.06371 42.1095 7.03602 42.2056 7.03602 42.2973C7.03602 42.3679 7.05828 42.4303 7.10388 42.4829C7.15002 42.5367 7.20756 42.5807 7.27867 42.6159C7.34924 42.6518 7.42578 42.6795 7.50666 42.7001C7.58809 42.7202 7.66354 42.7354 7.73466 42.7451V42.8217H5.72128V42.7451C5.92375 42.6898 6.13383 42.5801 6.35151 42.4146C6.56919 42.2506 6.79229 42.0389 7.02028 41.78C7.09628 41.6947 7.19019 41.5846 7.30147 41.4499C7.41275 41.3158 7.52946 41.1769 7.65106 41.0325C7.77265 40.8881 7.88882 40.747 8.0001 40.6107C8.11192 40.4739 8.20529 40.3599 8.28183 40.2687C8.25144 40.228 8.18141 40.1314 8.07284 39.9756C7.96373 39.8214 7.84105 39.6483 7.70426 39.4561C7.56746 39.2628 7.4323 39.0718 7.29767 38.8823C7.16359 38.6923 7.05611 38.5414 6.97468 38.4301C6.86829 38.283 6.77383 38.1544 6.68969 38.042C6.6061 37.9307 6.52522 37.8368 6.44705 37.7576C6.36834 37.6794 6.28474 37.6132 6.19626 37.56C6.10777 37.5073 6.00464 37.4623 5.88847 37.4275V37.351H8.36543ZM28.1798 37.3438C28.5191 37.3438 28.8204 37.3536 29.0836 37.3742C29.3469 37.3943 29.5879 37.4621 29.8056 37.5789C30.0282 37.6956 30.2078 37.8535 30.3446 38.0538C30.482 38.2541 30.5498 38.5066 30.5498 38.8095C30.5498 38.9973 30.5156 39.1661 30.4472 39.3154C30.3788 39.4652 30.2876 39.596 30.1737 39.71C30.0597 39.824 29.9272 39.9217 29.7747 40.0026C29.6232 40.0835 29.4636 40.1519 29.2964 40.2084V40.2306C29.3827 40.2768 29.4658 40.3419 29.5472 40.4282C29.6281 40.5145 29.7068 40.6106 29.7823 40.7175C29.9142 40.9092 30.0569 41.1165 30.2122 41.3402C30.3664 41.5627 30.5042 41.7603 30.6258 41.9329C30.8137 42.1957 30.9955 42.3889 31.173 42.51C31.3505 42.631 31.5579 42.7103 31.7962 42.745V42.8216H30.2383C30.1927 42.7754 30.1601 42.7418 30.14 42.719C30.1194 42.6956 30.0966 42.6696 30.0716 42.6392C30.0461 42.6088 30.0146 42.5648 29.9766 42.5062C29.9381 42.4481 29.8789 42.3607 29.798 42.244C29.7019 42.1023 29.6167 41.9742 29.5434 41.8602C29.4696 41.7462 29.3952 41.6338 29.3192 41.5226C29.2432 41.4113 29.1607 41.2978 29.0722 41.1838C28.9838 41.0698 28.8785 40.9428 28.7569 40.8006C28.6553 40.6839 28.5457 40.5753 28.4268 40.4738C28.3074 40.3728 28.182 40.3088 28.0506 40.2838C27.954 40.2637 27.8807 40.2534 27.8302 40.2534C27.7841 40.2534 27.7265 40.2512 27.6554 40.2458V41.104C27.6554 41.3472 27.6576 41.553 27.663 41.7202C27.6679 41.8814 27.6728 42.0214 27.6777 42.1376C27.6831 42.2543 27.7114 42.3504 27.7618 42.4264C27.802 42.4921 27.8807 42.5594 27.9969 42.6278C28.1136 42.6956 28.2759 42.7353 28.4838 42.745V42.8216H26.0524V42.745C26.1789 42.7255 26.3005 42.6951 26.4172 42.6544C26.5334 42.6142 26.6246 42.5529 26.6903 42.4725C26.7158 42.4416 26.7359 42.396 26.7511 42.3346C26.7663 42.2749 26.7782 42.2054 26.7858 42.13C26.7929 42.054 26.7988 41.9731 26.8043 41.8868C26.8092 41.801 26.8119 41.7174 26.8119 41.6366C26.8119 41.5654 26.813 41.4688 26.8157 41.3472C26.8184 41.2262 26.8206 41.0932 26.8233 40.9488C26.826 40.8044 26.8271 40.6562 26.8271 40.5047V38.5815C26.8271 38.4908 26.826 38.3985 26.8233 38.3041C26.8206 38.2107 26.8157 38.1222 26.8081 38.0386C26.8005 37.955 26.788 37.879 26.7701 37.8106C26.7522 37.7423 26.7288 37.6929 26.6979 37.6625C26.6224 37.5816 26.5372 37.5267 26.4438 37.4991C26.3499 37.4714 26.2343 37.4469 26.098 37.4274V37.3509L26.5427 37.3507C26.6803 37.3505 26.831 37.3496 26.9943 37.3476C27.2119 37.3449 27.4296 37.3438 27.6478 37.3438H28.1798ZM4.26235 37.3507L4.77913 38.6052L4.70313 38.6427C4.29275 38.1313 3.90788 37.7871 3.54852 37.6096C3.46221 37.5689 3.30261 37.5331 3.06974 37.5027C2.83632 37.4728 2.5535 37.4576 2.21911 37.4576C2.11272 37.4576 2.00198 37.4614 1.88799 37.4685C1.77453 37.4766 1.69202 37.4859 1.64099 37.4956C1.63122 37.5765 1.62254 37.7443 1.61494 37.9972C1.60734 38.2502 1.60354 38.5439 1.60354 38.8777L1.60375 39.459C1.60418 39.5488 1.6053 39.6249 1.60734 39.6876C1.60951 39.7712 1.61114 39.8358 1.61114 39.8814V39.965H1.76259C1.83858 39.965 1.92598 39.9623 2.02478 39.9569C2.12357 39.9525 2.22237 39.946 2.32117 39.9379C2.41996 39.9308 2.50247 39.9194 2.56816 39.9042C2.72015 39.8689 2.84663 39.8206 2.94814 39.7593C3.04911 39.6985 3.13162 39.6257 3.19513 39.5394C3.2581 39.4531 3.30913 39.3527 3.34658 39.2387C3.38512 39.1247 3.41878 38.9971 3.44972 38.8554H3.54092V41.2488H3.44972C3.40901 41.087 3.34659 40.9193 3.26353 40.7467C3.17994 40.5751 3.09254 40.446 3.00134 40.3602C2.92046 40.2891 2.82275 40.2304 2.70875 40.1848C2.59475 40.1393 2.46176 40.1116 2.30977 40.1013C2.23431 40.0958 2.17026 40.0926 2.12032 40.0899C2.06929 40.0882 2.01881 40.0861 1.96778 40.0861H1.61874C1.60842 40.1572 1.60354 40.2614 1.60354 40.3976V41.3096C1.60354 41.3905 1.60462 41.4676 1.60734 41.5414C1.60951 41.6147 1.61114 41.6771 1.61114 41.727C1.61602 41.8894 1.62525 42.0424 1.63774 42.1868C1.65022 42.3312 1.67953 42.4393 1.72513 42.5098C1.77019 42.5809 1.8793 42.6309 2.05138 42.6618C2.224 42.6922 2.41128 42.7074 2.61375 42.7074C2.70007 42.7074 2.80972 42.7047 2.94434 42.7004C3.07842 42.6949 3.21902 42.6824 3.36613 42.6618C3.52789 42.6417 3.67771 42.6026 3.81451 42.544C3.95076 42.4859 4.08267 42.4029 4.2097 42.297C4.33618 42.1912 4.45831 42.0603 4.57774 41.9056C4.69662 41.7515 4.8193 41.5658 4.94632 41.3476L5.02992 41.3699L4.64993 42.8214H0V42.7449C0.127024 42.7253 0.244278 42.6922 0.353388 42.6466C0.462498 42.6016 0.552066 42.5375 0.623177 42.4572C0.648148 42.4262 0.668774 42.3823 0.683974 42.3242C0.699173 42.2655 0.712745 42.1982 0.725773 42.1222C0.738801 42.0468 0.746941 41.967 0.75237 41.8834C0.757255 41.7998 0.759969 41.7173 0.759969 41.6364C0.759969 41.5658 0.761056 41.4687 0.763771 41.3476C0.766485 41.226 0.768656 41.0936 0.77137 40.9486C0.774084 40.8042 0.775172 40.656 0.775172 40.5046V38.5819C0.775172 38.4912 0.774084 38.3967 0.77137 38.3007C0.768656 38.2046 0.763771 38.1128 0.756171 38.0271C0.748571 37.9419 0.736087 37.8637 0.718173 37.7953C0.70026 37.7269 0.676375 37.6775 0.645976 37.6471C0.570522 37.5662 0.489094 37.5141 0.402783 37.4918C0.316472 37.4685 0.205191 37.4468 0.068396 37.4272V37.3507H4.26235ZM40.2903 37.3512V37.4272C40.1839 37.4424 40.0699 37.4707 39.9483 37.5108C39.8267 37.551 39.7328 37.6319 39.6671 37.754C39.6215 37.8403 39.5971 37.9489 39.5949 38.0808C39.5922 38.2116 39.5884 38.3365 39.5835 38.4527C39.5835 38.5797 39.5824 38.7045 39.5797 38.8288C39.577 38.9532 39.5759 39.078 39.5759 39.2045V41.7504C39.5759 41.897 39.5781 42.0386 39.5835 42.176C39.5884 42.3122 39.6112 42.4083 39.6519 42.4642C39.7127 42.5505 39.8088 42.6157 39.9407 42.6618C40.0721 42.7074 40.1915 42.7351 40.2979 42.7454V42.8214H37.9957V42.7454C38.1222 42.7253 38.24 42.6922 38.3491 42.6466C38.4577 42.6016 38.5499 42.5353 38.6265 42.449C38.6515 42.4186 38.6705 42.3763 38.6835 42.3198C38.696 42.2639 38.7057 42.1982 38.7133 42.1222C38.7209 42.0468 38.7258 41.967 38.7285 41.8834C38.7313 41.7998 38.7329 41.7173 38.7329 41.6364C38.7329 41.5658 38.7334 41.4687 38.7361 41.3476C38.7388 41.2266 38.741 41.0936 38.7437 40.9492C38.7465 40.8042 38.7475 40.656 38.7475 40.5046V38.3088C38.7475 38.2171 38.7437 38.1329 38.7361 38.0537C38.7285 37.9761 38.7177 37.9049 38.7019 37.8409C38.6867 37.7785 38.6639 37.7291 38.6341 37.6932C38.5624 37.6069 38.4756 37.545 38.3719 37.507C38.2677 37.4685 38.1499 37.4424 38.018 37.4272V37.3512H40.2903ZM44.4993 37.4041C44.1698 37.4041 43.8848 37.4839 43.6443 37.6435C43.4038 37.8036 43.2062 38.0099 43.0521 38.2628C42.8974 38.5163 42.7834 38.8035 42.7101 39.1249C42.6368 39.4473 42.5999 39.7719 42.5999 40.1014C42.5999 40.4461 42.6406 40.7772 42.7215 41.097C42.8024 41.4156 42.9229 41.6968 43.0825 41.94C43.2421 42.1832 43.4418 42.3781 43.6823 42.5252C43.9233 42.6723 44.2034 42.745 44.5221 42.745C44.8412 42.745 45.1186 42.6641 45.3542 42.5029C45.5898 42.3401 45.7858 42.1311 45.9427 41.8754C46.1001 41.6192 46.2173 41.332 46.296 41.0134C46.3748 40.6942 46.4138 40.375 46.4138 40.0558C46.4138 39.7469 46.3748 39.4354 46.296 39.1211C46.2173 38.8073 46.0985 38.5223 45.9389 38.2666C45.7793 38.011 45.5806 37.8036 45.3428 37.6435C45.1045 37.4839 44.8233 37.4041 44.4993 37.4041ZM28.1261 37.4578C28.0197 37.4578 27.9339 37.4605 27.8682 37.4649C27.802 37.4703 27.7515 37.4757 27.7162 37.4801C27.7114 37.511 27.7059 37.5376 27.7005 37.5604C27.6956 37.5827 27.6918 37.612 27.6896 37.6473C27.6869 37.6831 27.6842 37.7325 27.682 37.7954C27.6793 37.859 27.6755 37.9491 27.6706 38.0658C27.6652 38.2422 27.662 38.4425 27.6592 38.6651C27.6565 38.8887 27.6554 39.1031 27.6554 39.3116V40.147C27.8628 40.147 28.0566 40.1383 28.2368 40.1204C28.416 40.1025 28.5897 40.0667 28.7569 40.0097C28.9192 39.9597 29.0581 39.8913 29.1748 39.805C29.2915 39.7193 29.386 39.621 29.4598 39.5124C29.5331 39.4039 29.5879 39.2866 29.6232 39.1596C29.6585 39.0331 29.6759 38.9012 29.6759 38.7639C29.6759 38.5109 29.6129 38.2856 29.4864 38.088C29.3594 37.8904 29.1748 37.7336 28.9316 37.6169C28.8101 37.5609 28.6825 37.5208 28.5484 37.4958C28.4138 37.4703 28.2732 37.4578 28.1261 37.4578ZM20.3543 20.761V20.9548C20.173 20.9809 19.9786 21.0194 19.7713 21.0715C19.5645 21.1226 19.3766 21.2045 19.2089 21.3142C19.0406 21.4244 18.8979 21.5764 18.7812 21.7702C18.665 21.964 18.5998 22.2099 18.5874 22.5079C18.5743 22.8444 18.5646 23.1419 18.5586 23.4008C18.5515 23.6598 18.5483 23.9117 18.5483 24.1576V28.0215C18.5483 28.3184 18.5515 28.6066 18.5586 28.8851C18.5646 29.1631 18.5684 29.4578 18.5684 29.7683C18.5808 30.4539 18.6845 31.0787 18.8789 31.6416C19.0727 32.2046 19.3446 32.6828 19.6937 33.078C20.0438 33.4732 20.4705 33.7772 20.9753 33.9899C21.4796 34.2038 22.0555 34.3108 22.7031 34.3108C23.4409 34.3108 24.0646 34.2272 24.5765 34.0583C25.0878 33.8906 25.5145 33.6572 25.8576 33.3597C26.2001 33.0617 26.4721 32.7192 26.6729 32.3305C26.8738 31.9424 27.0225 31.5287 27.1197 31.0879C27.2163 30.6483 27.2809 30.1982 27.3135 29.7385C27.3455 29.2798 27.3618 28.8303 27.3618 28.3895V25.0896C27.3618 24.8312 27.3585 24.5652 27.3525 24.2933C27.3455 24.0224 27.3357 23.7629 27.3232 23.517C27.3102 23.2717 27.2912 23.042 27.2651 22.8282C27.2391 22.6148 27.2 22.4433 27.1484 22.3141C27.0187 21.9515 26.7961 21.6567 26.4786 21.4309C26.1616 21.2045 25.6925 21.0455 25.0715 20.9548V20.761H29.8854V20.9548C29.4066 21.0194 29.0283 21.1426 28.7503 21.324C28.4713 21.5053 28.2553 21.7837 28.1 22.1588C28.0609 22.2495 28.0251 22.3982 27.9931 22.605C27.9605 22.8124 27.9312 23.0507 27.9051 23.3232C27.8796 23.5952 27.8601 23.8829 27.8476 24.1863C27.8346 24.4909 27.8275 24.7927 27.8275 25.0896C27.8145 25.646 27.7993 26.2676 27.7792 26.9532C27.7602 27.6388 27.7369 28.4156 27.7113 29.2825C27.6983 29.5284 27.6826 29.8394 27.663 30.2145C27.6435 30.5907 27.5816 30.9881 27.4785 31.4082C27.3748 31.8295 27.2098 32.2502 26.9834 32.6703C26.757 33.0916 26.4368 33.4732 26.0226 33.8157C25.6084 34.1588 25.0775 34.4307 24.4304 34.631C23.7834 34.8313 22.9876 34.9318 22.0431 34.9318C21.111 34.9318 20.325 34.8346 19.6844 34.6408C19.0433 34.447 18.5162 34.1848 18.1021 33.8548C17.6873 33.5242 17.3676 33.1627 17.1412 32.7675C16.9149 32.3723 16.7466 31.9847 16.6364 31.602C16.5262 31.2209 16.4616 30.8714 16.4426 30.5549C16.4225 30.2379 16.4133 30.0006 16.4133 29.8454C16.4133 29.4839 16.416 29.0105 16.4225 28.4291C16.429 27.8461 16.4328 27.1991 16.4328 26.4874V23.2065C16.4328 22.9736 16.4225 22.7576 16.4035 22.5562C16.384 22.3564 16.3552 22.1751 16.3161 22.0123C16.2776 21.851 16.219 21.7251 16.1413 21.6345C15.96 21.4146 15.7369 21.2556 15.4715 21.1589C15.2066 21.0618 14.9053 20.9934 14.5693 20.9548V20.761H20.3543ZM41.2325 0.178711C41.277 0.181629 41.4143 0.259797 41.4502 0.273368C42.9207 0.826518 44.1079 1.6082 45.0492 2.86595C46.1462 4.33324 46.6087 6.19028 46.5278 8.0077C47.0381 7.52512 47.5956 7.0941 48.2074 6.74832C49.4222 6.06217 50.737 5.77067 52.0371 5.85372C53.2351 5.93081 54.4196 6.32545 55.4998 7.02353C55.6073 7.11093 55.7284 7.18259 55.8462 7.25641L55.793 7.2803C55.0124 7.04036 54.2139 6.86123 53.405 6.75537C53.1656 6.72443 52.923 6.71575 52.6841 6.67883L52.6613 6.69241C53.1564 6.8976 53.5451 7.26455 53.9126 7.64128C53.9321 7.67331 53.9354 7.70208 53.8898 7.70154C53.6716 7.59406 53.4615 7.46812 53.2378 7.37041C52.7835 7.17281 52.3074 7.0789 51.8178 7.02082C51.6039 6.99585 51.3808 7.00182 51.1723 6.95188C51.1582 6.97414 51.2109 6.98825 51.2261 6.99368C51.2733 7.01214 51.3265 7.01485 51.3737 7.03276C51.8601 7.21896 52.2542 7.45292 52.6461 7.79002C52.6765 7.81608 52.676 7.85733 52.6347 7.85462C52.6271 7.85407 52.6185 7.85245 52.6087 7.84865C52.194 7.69828 51.7613 7.58103 51.3157 7.54249C51.2907 7.54031 51.2657 7.53869 51.2407 7.53706C50.718 7.5034 50.1963 7.59134 49.6741 7.5718C49.6595 7.5946 49.6975 7.60003 49.7127 7.60274C50.0937 7.66191 50.4623 7.72651 50.8005 7.93713C50.8287 7.9545 50.8743 7.9811 50.8401 8.01204C50.8228 8.0267 50.446 8.01584 50.3858 8.01855C49.8728 8.04407 49.3718 8.12006 48.8685 8.21126C48.8468 8.21506 48.5608 8.246 48.5716 8.26717C48.7453 8.29431 48.9212 8.32091 49.0884 8.38497C49.1302 8.40125 49.2453 8.42948 49.1991 8.47834C49.185 8.49354 48.8523 8.52176 48.7931 8.53425C48.5505 8.58473 48.2931 8.69493 48.0662 8.79535C48.0462 8.80404 48.0228 8.80187 48.0168 8.82955C48.2182 8.7845 48.418 8.72207 48.621 8.68353C49.2404 8.56628 49.8733 8.52991 50.503 8.57008C51.8281 8.6553 53.1347 9.08034 54.2491 9.80883C55.293 10.4912 56.5394 11.7663 57.0469 12.9204C57.0496 12.9263 57.1202 13.0208 57.0865 13.0295C57.0616 13.0192 57.0393 13.0083 57.0182 12.9915C56.8884 12.8878 56.7473 12.7217 56.6137 12.6055C56.2397 12.2782 55.8451 11.9834 55.4559 11.686C55.1703 11.4677 54.8881 11.2446 54.5933 11.0389L54.9038 11.541C54.9727 11.7272 55.1253 11.9769 55.1589 12.1696C55.1622 12.187 55.1698 12.2554 55.1448 12.2538C55.1405 12.2532 55.1356 12.251 55.1296 12.2467C55.0645 12.1463 54.9814 12.0605 54.9043 11.9688C54.4717 11.4542 53.956 11.0346 53.4023 10.6622C53.3008 10.5943 53.1944 10.5319 53.0945 10.4613L53.4305 10.9439C53.5939 11.2164 53.7818 11.4987 53.8605 11.8135C53.8659 11.8352 53.9061 11.9785 53.8556 11.9758C53.8534 11.9753 53.8507 11.9753 53.8485 11.9742C53.8377 11.9715 53.7291 11.8303 53.7047 11.8027C53.6417 11.7299 53.5777 11.6512 53.5033 11.579C52.9865 11.0774 52.3845 10.6974 51.7814 10.3234L51.9372 10.4537C52.1847 10.6953 52.4149 10.9537 52.6087 11.2397C52.6385 11.2837 52.7819 11.4835 52.7634 11.5226C52.7574 11.5345 52.7417 11.5459 52.7308 11.5454C52.7297 11.5454 52.7287 11.5448 52.7276 11.5448C52.7135 11.5399 52.537 11.3836 52.498 11.3565C51.9882 11.0025 51.4096 10.7675 50.8342 10.5455C50.6545 10.4765 50.4667 10.4233 50.2897 10.3479C50.2826 10.375 50.3038 10.3859 50.3228 10.3978C50.4688 10.4906 50.6181 10.5943 50.7495 10.7088C50.7983 10.7517 50.9786 10.9227 51.0024 10.9683C51.0133 10.9884 51.0057 10.9944 50.9905 10.9933C50.9623 10.9917 50.9085 10.9662 50.9009 10.964C50.1741 10.7865 49.4478 10.5346 48.729 10.3522C48.6416 10.3299 48.545 10.286 48.4549 10.2724C48.4446 10.2708 48.4397 10.2664 48.4359 10.2659C48.4316 10.2659 48.4289 10.2702 48.4223 10.2898L48.7784 10.609C48.8143 10.635 48.9071 10.6464 49.0026 10.6524C49.0732 10.6567 49.1454 10.6589 49.197 10.6622C49.2089 10.6627 49.2198 10.6638 49.2295 10.6649C52.8779 11.0498 55.5997 14.2009 56.1415 17.6968C56.154 17.7787 56.2289 18.3124 56.2039 18.346C56.1974 18.3542 56.192 18.3574 56.1876 18.3569C56.18 18.3563 56.1735 18.3466 56.1659 18.3368C56.1312 18.2912 56.0818 18.187 56.0546 18.1316C55.9612 17.9383 55.8956 17.7239 55.8049 17.5301C55.4906 16.8603 55.0895 16.2311 54.7214 15.5906L54.6986 15.5873C54.7426 15.8289 54.7735 16.0742 54.7822 16.3196C54.7887 16.5112 54.7958 16.7968 54.7768 16.9824C54.7757 16.9943 54.7583 17.1273 54.7334 17.1257C54.7312 17.1257 54.729 17.1246 54.7274 17.1225C54.7165 17.0942 54.6905 17.0714 54.6791 17.0437C54.6259 16.9102 54.6036 16.642 54.5569 16.4814C54.5075 16.3136 54.4283 16.1041 54.3615 15.9391C54.1731 15.4739 53.9338 15.0325 53.6927 14.5923C53.6868 14.5901 53.6824 14.589 53.6786 14.5885C53.6428 14.5863 53.6862 14.6754 53.69 14.6949C53.7611 15.1172 53.7562 15.6367 53.6678 16.0569C53.6596 16.0965 53.6417 16.2398 53.5912 16.2365C53.5869 16.2365 53.5831 16.2355 53.5787 16.2333C53.5668 16.2279 53.5679 16.008 53.5635 15.9722C53.4984 15.4565 53.2802 14.9712 52.9974 14.5402C52.8497 14.3144 52.6782 14.1016 52.5262 13.8774C52.4887 13.8855 52.5153 13.8996 52.5218 13.9132C52.651 14.1754 52.7167 14.3556 52.7683 14.6444C52.7813 14.7155 52.8481 15.2003 52.8275 15.2274C52.8166 15.2415 52.8085 15.2464 52.8025 15.2459C52.7851 15.2448 52.7824 15.203 52.7802 15.1976C52.3628 14.3051 51.7298 13.5875 51.0687 12.871C51.054 12.8645 51.047 12.8612 51.0442 12.8607C51.0399 12.8607 51.048 12.8688 51.0567 12.8862C51.0925 12.9546 51.1419 13.0208 51.1751 13.0892C51.2733 13.29 51.3439 13.5273 51.3808 13.7482C51.3862 13.7824 51.4215 13.986 51.3971 13.9946C51.3694 13.9881 51.364 13.968 51.3504 13.949C51.2798 13.854 51.2234 13.7406 51.1534 13.6456C50.7609 13.1114 50.2463 12.6207 49.7034 12.2418C49.6871 12.2451 49.8033 12.3954 49.8125 12.4112C49.8961 12.5431 50.0085 12.7515 50.0601 12.8965C50.0742 12.9361 50.1008 12.9812 50.0742 13.0202C49.9754 12.9497 49.8885 12.8612 49.7919 12.7879C49.2958 12.4096 48.7459 12.1132 48.1797 11.8521L48.3485 11.9671C51.3835 13.6087 53.4854 17.2126 52.9805 20.6954C52.9784 20.7101 52.974 20.7399 52.9708 20.7611H57.84L59.1596 23.9638L58.9658 24.061C57.9176 22.7538 56.9335 21.8739 56.015 21.4206C55.7951 21.3175 55.3869 21.2268 54.792 21.1487C54.2709 21.0814 53.633 21.0482 52.9132 21.0396C52.9056 21.058 52.8997 21.0754 52.8741 21.0792C52.8709 21.0656 52.8693 21.0515 52.866 21.0385C52.7791 21.0374 52.7069 21.032 52.6174 21.032C52.3465 21.032 52.0648 21.0423 51.7738 21.0618C51.4818 21.0808 51.2717 21.1042 51.1425 21.1291C51.1164 21.3365 51.0942 21.7637 51.0746 22.4108C51.0546 23.0584 51.0459 23.8086 51.0459 24.6625V25.9045C51.0459 26.2416 51.0486 26.5168 51.0546 26.7296C51.0616 26.9434 51.0643 27.1085 51.0643 27.2252V27.4391H51.453C51.6473 27.4391 51.8704 27.4325 52.1229 27.419C52.3753 27.4065 52.6271 27.3902 52.8796 27.3707C53.132 27.3511 53.3426 27.3223 53.5109 27.2838C53.8996 27.1932 54.2225 27.0699 54.4809 26.9147C54.7404 26.7594 54.9505 26.5716 55.1123 26.3518C55.274 26.1319 55.4038 25.8762 55.5009 25.5853C55.5981 25.2932 55.6849 24.9664 55.7631 24.6038H55.9954V30.7189H55.7631C55.6589 30.3052 55.5009 29.878 55.287 29.4378C55.0737 28.9981 54.8501 28.6686 54.6177 28.4476C54.4104 28.2674 54.1617 28.1181 53.8697 28.0014C53.5787 27.8853 53.2389 27.8142 52.8508 27.7881C52.657 27.7756 52.4947 27.7658 52.3655 27.7593C52.2358 27.7523 52.1066 27.7496 51.9774 27.7496H51.0844C51.0583 27.9309 51.0459 28.1958 51.0459 28.5448V30.8741C51.0459 31.0815 51.0486 31.2791 51.0546 31.4669C51.0616 31.6542 51.0643 31.8132 51.0643 31.9424C51.0774 32.3566 51.1007 32.7475 51.1327 33.1166C51.1653 33.4857 51.2397 33.7609 51.3564 33.9417C51.472 34.123 51.7505 34.2522 52.1913 34.3304C52.631 34.4074 53.1097 34.4471 53.6276 34.4471C53.8474 34.4471 54.1281 34.4406 54.4722 34.4275C54.8142 34.4145 55.173 34.3825 55.5492 34.3304C55.9634 34.2783 56.3445 34.1784 56.6946 34.0296C57.0442 33.8804 57.3808 33.6703 57.7038 33.3983C58.0267 33.1264 58.341 32.7936 58.6456 32.3984C58.9496 32.0043 59.2628 31.5288 59.5868 30.9724L59.8007 31.0305L58.8301 34.738H46.9496V34.5442C47.2726 34.4921 47.5733 34.4074 47.8518 34.2918C48.1303 34.1751 48.3599 34.0133 48.5412 33.806C48.6058 33.7278 48.6579 33.6149 48.6965 33.4667C48.735 33.318 48.7708 33.1464 48.8034 32.9516C48.8354 32.7578 48.8582 32.5537 48.8718 32.3403C48.8843 32.1264 48.8903 31.9164 48.8903 31.709C48.8903 31.5288 48.8941 31.2829 48.9 30.9724C48.9065 30.6613 48.9131 30.3215 48.9201 29.9524C48.9261 29.5833 48.9288 29.2054 48.9288 28.8168V23.9057C48.9288 23.6723 48.9261 23.4335 48.9201 23.1876C48.9131 22.9417 48.9 22.7088 48.8805 22.4884C48.8615 22.268 48.8295 22.071 48.7833 21.8967C48.7388 21.7214 48.6769 21.5949 48.5993 21.5178C48.4055 21.3104 48.1982 21.1774 47.9783 21.1199C47.7574 21.0618 47.474 21.007 47.1239 20.9549V20.7611H52.8079C52.7781 20.6064 52.7466 20.4522 52.7118 20.2986C52.5978 19.7943 52.4496 19.3188 52.3047 18.8248C52.2444 18.618 52.2081 18.4041 52.1234 18.2049C52.1017 18.2049 52.1055 18.2407 52.1039 18.2564C52.0659 18.5995 52.0561 18.9171 51.9253 19.2477C51.9041 19.3014 51.744 19.6347 51.7195 19.638H51.7125C51.6517 19.6342 51.7141 19.4648 51.7201 19.4192C51.8161 18.6972 51.5393 17.9079 51.3661 17.2131C51.3575 17.1773 51.3613 17.0942 51.3314 17.0926C51.3292 17.0926 51.3271 17.0926 51.3243 17.0931C51.3151 17.193 51.3135 17.294 51.2999 17.3928C51.2711 17.6023 51.2228 17.8775 51.1463 18.073C51.124 18.131 50.9395 18.5213 50.9167 18.5338C50.9096 18.5382 50.9031 18.5398 50.8977 18.5393C50.8884 18.5387 50.8798 18.5338 50.87 18.5273L50.9069 18.2257L50.9178 18.0741C50.9357 17.4259 50.6436 16.7794 50.5264 16.1497C50.4786 16.1996 50.4922 16.2903 50.4797 16.356C50.4216 16.6632 50.3201 17.0595 50.1632 17.3293C50.1458 17.3591 50.1258 17.376 50.1111 17.3749C50.0986 17.3743 50.0899 17.3602 50.0899 17.3304C50.0899 17.2614 50.1149 17.1653 50.1165 17.0866C50.1296 16.4206 49.8744 15.7572 49.6312 15.1498C49.6106 15.1639 49.6204 15.2198 49.622 15.2426C49.6372 15.4945 49.641 15.7295 49.5699 15.9776C49.5661 15.9906 49.5422 16.0618 49.5189 16.0601C49.5156 16.0601 49.5118 16.0585 49.5086 16.0547C49.3392 15.279 48.9549 14.5728 48.4924 13.9328C48.4527 13.9404 48.4848 13.9583 48.4869 13.9659C48.4951 13.9974 48.5141 14.0283 48.5211 14.0598C48.5803 14.3111 48.5716 14.5565 48.5689 14.8132L48.5309 14.8485C48.3599 14.3779 48.1118 13.9572 47.8225 13.549C47.6651 13.3269 47.4919 13.1185 47.3291 12.9025C47.297 12.9605 47.3502 13.0371 47.3616 13.093C47.3757 13.1657 47.3931 13.2705 47.3969 13.3438C47.3975 13.3514 47.4138 13.3606 47.4116 13.3682C47.404 13.3937 47.3953 13.4029 47.3861 13.4024C47.3622 13.4008 47.335 13.3335 47.3177 13.3101C47.0137 12.897 46.6646 12.4774 46.2369 12.1902L46.6967 12.8981C48.0033 15.1688 47.9778 17.8841 46.5892 20.0798C46.4567 20.2894 46.3281 20.5005 46.1701 20.6997C45.6267 21.3864 44.8559 22.0796 44.0607 22.4634C44.0476 22.4699 44.0297 22.4841 44.0129 22.483C44.008 22.4824 44.0031 22.4808 43.9988 22.4775C43.9705 22.4575 44.0064 22.4401 44.0151 22.4287C44.173 22.2219 44.3614 22.0389 44.5275 21.8397C44.6833 21.653 44.8288 21.457 44.9759 21.2621C45.1024 21.0955 45.2299 20.9305 45.3526 20.7611C45.5089 20.5445 45.6653 20.3274 45.8205 20.1119C45.8384 20.0863 45.864 20.0652 45.884 20.0391C45.8944 20.0261 45.9058 20.0147 45.909 19.9957C45.8775 19.9951 45.8531 20.0163 45.8292 20.0359C45.8205 20.0429 45.8113 20.0511 45.8021 20.0565C45.453 20.2611 44.8809 20.551 44.4591 20.5244L44.4406 20.5228C44.4195 20.5212 44.382 20.5157 44.4064 20.4891C44.6925 20.3529 44.9449 20.1938 45.1897 19.9984C45.2153 19.9778 45.243 19.962 45.2685 19.9403C45.7657 19.5223 46.2125 19.0218 46.5262 18.4492L46.5256 18.4494L46.175 18.8085C45.7916 19.1372 45.3758 19.3743 44.8956 19.4995L44.7495 19.5337C44.7159 19.5408 44.6855 19.5674 44.6513 19.5652C44.6388 19.5641 44.6263 19.5598 44.6127 19.5495C44.6046 19.5256 44.8456 19.3459 44.883 19.3123C45.3933 18.8563 45.7749 18.2977 46.055 17.6723L45.8585 17.896C45.7744 17.9753 45.6935 18.0589 45.605 18.1332C45.5301 18.1956 45.1165 18.5023 45.0492 18.5013H45.0437C44.9721 18.4964 45.0698 18.4236 45.0834 18.4046C45.5361 17.7739 45.7396 17.1816 45.9324 16.4439C45.9448 16.3961 45.934 16.3375 45.9785 16.2881C45.9524 16.2859 45.9144 16.3321 45.9036 16.3473C45.7581 16.5509 45.6159 16.7484 45.4389 16.9276C45.4286 16.9379 45.421 16.9493 45.4107 16.9591C45.3955 16.9743 45.1865 17.167 45.1366 17.1637C45.1306 17.1637 45.1268 17.1605 45.1257 17.155C45.1827 17.0644 45.2391 16.971 45.2804 16.8717C45.3852 16.6171 45.4623 16.3522 45.529 16.0911C45.6115 15.7697 45.6794 15.4462 45.7114 15.1156L45.6832 15.0803C45.655 15.1286 45.6376 15.1878 45.6072 15.2339C45.586 15.267 45.5361 15.3268 45.5073 15.3658C45.4699 15.4169 45.1697 15.7789 45.1425 15.7827C45.1387 15.7827 45.1355 15.7779 45.1322 15.7768C45.1219 15.7719 45.1089 15.7654 45.1045 15.7567C45.0969 15.742 45.1919 15.4874 45.2039 15.4424C45.3103 15.0548 45.3749 14.6032 45.3944 14.2009C45.3971 14.1531 45.4091 13.5539 45.3776 13.5517L45.377 13.5522C45.2755 13.6836 45.2158 13.8492 45.1181 13.9827L45.0904 13.9702C45.1311 13.3758 45.0188 12.7597 45.0188 12.7597L45.0189 12.7615L45.0178 12.7772C45.0085 12.8942 44.947 13.5254 44.8831 13.5057L44.8711 13.4941C44.8673 13.3579 44.8722 12.8856 44.8586 12.5024C44.7446 13.011 44.6437 13.5131 44.5481 13.8302C44.1361 15.1986 43.584 17.3287 42.6129 19.848C42.4978 20.1466 42.3735 20.4517 42.2459 20.7611C42.1683 20.9495 42.0923 21.1362 42.0098 21.3284C41.2938 22.9905 40.3808 24.7792 39.2164 26.6107L39.2099 26.621L40.7743 28.7972C40.9089 28.9932 41.036 29.1794 41.1836 29.3895C41.4426 29.7586 41.6917 30.1114 41.9311 30.448C42.1705 30.7846 42.3871 31.088 42.5814 31.36C42.7752 31.6319 42.9174 31.8393 43.0081 31.981C43.2676 32.3566 43.5032 32.6932 43.717 32.9912C43.9309 33.2892 44.141 33.5438 44.3484 33.7577C44.5546 33.971 44.7685 34.1453 44.9884 34.2821C45.2087 34.4172 45.4547 34.5046 45.7261 34.5442V34.738H39.4362V34.5442C39.6175 34.5182 39.8119 34.4894 40.0192 34.4558C40.2255 34.4248 40.4198 34.376 40.6012 34.3108C40.7825 34.2457 40.9312 34.155 41.0479 34.0383C41.1641 33.9227 41.2227 33.774 41.2227 33.5926C41.2227 33.4113 41.138 33.1687 40.9703 32.8642C40.802 32.5613 40.6077 32.2404 40.3878 31.9039C40.0898 31.4381 39.75 30.93 39.3689 30.3796C38.9868 29.8292 38.5498 29.212 38.058 28.5258C37.8511 28.7717 37.6248 29.0437 37.3783 29.3412C37.1324 29.6392 36.8865 29.9399 36.6412 30.2439C36.3953 30.5484 36.1586 30.8426 35.9322 31.1276C35.7059 31.4121 35.5148 31.6645 35.3595 31.8843C35.1782 32.1438 35.017 32.4022 34.8748 32.6606C34.732 32.9201 34.6609 33.1649 34.6609 33.3983C34.6609 33.5796 34.719 33.7381 34.8357 33.8744C34.9524 34.0101 35.1006 34.123 35.2819 34.2137C35.4632 34.3043 35.657 34.376 35.8649 34.4275C36.0717 34.4791 36.2655 34.5182 36.4468 34.5442V34.738H32.0889C32.0879 34.7386 32.0868 34.7397 32.0857 34.7407H29.4388V34.5149C32.3663 32.9119 35.0436 30.1456 37.1802 27.2833C36.9343 26.9348 36.6672 26.558 36.3692 26.1379C36.0202 25.6461 35.6733 25.1581 35.3308 24.6722C34.9877 24.1864 34.7125 23.8026 34.5056 23.5171C34.2342 23.1414 33.991 22.8125 33.7777 22.5269C33.5644 22.243 33.357 21.9998 33.1562 21.7995C32.9558 21.5987 32.742 21.4309 32.5156 21.2942C32.2892 21.1584 32.0271 21.0455 31.7296 20.9549V20.7611H38.058V20.9549C37.8897 20.9674 37.6959 20.9934 37.476 21.032C37.2557 21.0716 37.0548 21.1226 36.874 21.1872C36.6927 21.2529 36.5375 21.343 36.4083 21.4592C36.2785 21.5759 36.214 21.7252 36.214 21.9054C36.214 22.0878 36.3046 22.3266 36.4859 22.6246C36.6667 22.9216 36.874 23.2397 37.1069 23.5752C37.4305 24.0409 37.7605 24.517 38.0971 25.0028C38.2007 25.1515 38.3234 25.328 38.4401 25.4962C38.4445 25.4897 38.4488 25.4832 38.4532 25.4767C39.2989 24.2059 40.0274 22.9623 40.6082 21.843C40.7564 21.558 40.8905 21.2784 41.0257 20.9989C41.0637 20.9201 41.106 20.8393 41.1429 20.7611C41.2982 20.4321 41.4426 20.1086 41.5815 19.7878C42.5624 17.5231 43.1628 15.4527 43.6785 13.6005C43.8392 13.0908 44.0118 12.5681 44.1252 12.0545C44.1307 12.029 44.1508 12.0051 44.16 11.9807C44.1225 11.9856 44.084 12.0187 44.052 12.0393C43.9315 12.1181 43.8175 12.2098 43.7002 12.295C43.3381 12.5572 42.9875 12.84 42.6753 13.156C42.6726 13.157 42.6704 13.157 42.6683 13.157C42.6319 13.1549 42.6645 13.0235 42.6688 13.0072C42.7117 12.8536 42.7817 12.7103 42.8458 12.5653C42.8528 12.5485 42.88 12.5203 42.855 12.5116C42.6726 12.6983 42.4642 12.8569 42.285 13.0474C41.9431 13.4111 41.6271 13.866 41.4013 14.3084C41.3769 14.3562 41.2699 14.62 41.2547 14.6292C41.2477 14.6336 41.2422 14.6357 41.2374 14.6352C41.2303 14.6346 41.2243 14.6292 41.2173 14.6194C41.1896 14.5804 41.2705 14.0326 41.2862 13.9458C41.3177 13.7775 41.3606 13.6109 41.404 13.4458C41.41 13.4247 41.4246 13.4046 41.4002 13.3856C41.3432 13.4475 41.3215 13.5294 41.2786 13.5989C40.9578 14.1195 40.6457 14.6661 40.4741 15.2578C40.3705 15.5043 40.3287 15.7741 40.2646 16.0335L40.2174 16.0297C40.1566 15.7127 40.1365 15.3914 40.1457 15.0695L40.2092 14.4707C40.1902 14.5136 40.1647 14.5543 40.1473 14.5983C39.8786 15.2768 39.7733 16.0905 39.788 16.8082C39.7891 16.851 39.8026 17.0921 39.795 17.1051C39.7918 17.1116 39.782 17.1138 39.7712 17.1132C39.7598 17.1121 39.7467 17.1083 39.7391 17.1035C39.7315 17.098 39.7413 17.0785 39.7348 17.0682C39.4688 16.6192 39.3619 16.1247 39.3266 15.6079L39.3325 15.0434C39.2712 15.2714 39.218 15.5048 39.1833 15.7388C39.1029 16.274 39.1029 16.882 39.1811 17.4194C39.2028 17.5708 39.2576 17.7201 39.2555 17.8748C39.2538 17.8813 39.2506 17.8835 39.2457 17.8835C39.2148 17.8813 39.1241 17.7538 39.117 17.7435C38.9645 17.5209 38.8625 17.2251 38.7691 16.9743L38.6545 16.5101C38.6372 16.5319 38.6393 16.5547 38.635 16.5785C38.458 17.5079 38.4526 18.5338 38.2936 19.4735L38.2724 19.5256L38.2355 19.5164C38.1991 19.3611 38.1405 19.2102 38.1025 19.0555C37.5347 16.7702 38.2116 14.1227 39.9166 12.4807C40.5621 11.8591 41.3367 11.3923 42.1548 11.0416C42.145 11.0318 42.1374 11.028 42.1309 11.0275C42.1206 11.027 42.1135 11.0346 42.1054 11.0356C41.8937 11.0655 41.6244 11.1312 41.4143 11.1811C41.1945 11.2332 40.9768 11.3011 40.7602 11.3624L40.7369 11.3255C40.9366 11.1583 41.1445 10.9971 41.3736 10.8701L41.3633 10.8402C40.5936 11.0112 39.8287 11.2099 39.0964 11.503L39.1067 11.4379C39.2853 11.2723 39.4661 11.1067 39.6376 10.9336C39.6767 10.894 39.7332 10.8418 39.7565 10.7924C39.4932 10.9119 39.2164 11.0118 38.9531 11.1312C38.5194 11.3288 38.1095 11.5459 37.7144 11.8146C37.6644 11.807 37.6878 11.7701 37.7111 11.7386C37.9011 11.4764 38.1486 11.2224 38.3484 10.9618C38.3587 10.9488 38.3831 10.9189 38.3728 10.9032C38.115 11.0139 37.8691 11.1507 37.6259 11.2929C37.336 11.4623 37.0467 11.6469 36.798 11.8825C36.7416 11.9362 36.4664 12.2527 36.4419 12.2608C36.4387 12.2619 36.4354 12.2624 36.4327 12.2624C36.4077 12.2608 36.4235 12.2033 36.4262 12.194C36.5022 11.9405 36.6954 11.6252 36.8442 11.4026C36.9473 11.2484 37.0781 11.1116 37.1688 10.951C36.9962 11.0536 36.8187 11.1513 36.6488 11.2587C36.1494 11.5741 35.6624 11.9476 35.2216 12.3422C35.1967 12.3656 35.0952 12.4801 35.0859 12.4823C35.0849 12.4828 35.0838 12.4828 35.0827 12.4828C35.0707 12.4818 35.0474 12.4628 35.0327 12.459C35.2472 12.0556 35.4757 11.6572 35.7851 11.3185L35.7618 11.2995L33.1795 12.8129C33.1627 12.8205 33.1442 12.8254 33.1306 12.8248C33.1122 12.8237 33.1013 12.8123 33.1122 12.783C33.5589 12.1441 34.1425 11.5692 34.7526 11.0867C36.4061 9.77897 38.4276 9.09065 40.5262 9.22528C40.6598 9.23342 40.7933 9.24536 40.9274 9.26056C42.0169 9.38487 43.0537 9.7198 44.0351 10.216L43.8967 9.99285C43.622 9.65086 43.3039 9.39301 42.8957 9.22256C42.8844 9.21786 42.8727 9.21427 42.8609 9.21126L42.7891 9.19569C42.7538 9.18701 42.7204 9.17371 42.6943 9.14114C42.6867 9.09988 43.0228 9.02606 43.14 9.03366C43.1563 9.03474 43.1682 9.03746 43.1747 9.04126L43.0461 8.94626C42.5358 8.71718 41.9756 8.59505 41.4203 8.55053C41.4149 8.5489 41.4073 8.54782 41.3986 8.54728C41.3302 8.54239 41.1706 8.5755 41.1174 8.57225C41.1098 8.5717 41.1044 8.57062 41.1017 8.56845C41.0794 8.55108 41.0951 8.54293 41.1109 8.53099C41.2808 8.40125 41.5207 8.29594 41.7194 8.2194C41.7449 8.21723 41.7286 8.20312 41.7129 8.2004C41.5229 8.16512 41.2982 8.14123 41.1044 8.12495C41.0566 8.12115 41.0083 8.11735 40.9589 8.11409C40.4931 8.08424 39.972 8.09346 39.528 8.18846C39.4965 8.19497 39.3923 8.23406 39.351 8.23135C39.326 8.22972 39.3239 8.21343 39.3722 8.16675C39.49 8.05438 39.8493 7.86982 40.0051 7.79599C40.1007 7.75039 40.2043 7.72271 40.2977 7.67114L40.2809 7.65485C39.5508 7.72759 38.787 7.73574 38.1041 8.02887C38.0694 8.04352 37.8663 8.15372 37.8457 8.15263L37.8446 8.15209C37.8359 8.14829 37.83 8.10921 37.849 8.10052C38.2007 7.78459 38.5612 7.47029 38.9949 7.27215C39.002 7.26455 38.9879 7.25641 38.9781 7.25587L38.9109 7.25754C38.7359 7.27253 38.4455 7.35921 38.2968 7.39104C37.7876 7.4996 37.2828 7.59948 36.8317 7.8785C36.8002 7.89804 36.6944 7.99195 36.6542 7.98924C36.6509 7.98924 36.6477 7.98816 36.645 7.98653C36.6298 7.97458 36.6374 7.95016 36.6488 7.93333C36.6911 7.87307 36.8116 7.75528 36.8692 7.69611C37.1721 7.38886 37.5298 7.13265 37.8929 6.90411L37.8767 6.88783C37.0011 7.06533 36.1504 7.26727 35.3802 7.73628C35.366 7.74496 35.3226 7.78948 35.3014 7.78785C35.2917 7.78731 35.2862 7.77699 35.29 7.75039C35.2933 7.72705 35.4377 7.55931 35.467 7.52837C35.7721 7.21027 36.1857 6.95785 36.5869 6.78577L36.5766 6.75646C36.4892 6.78089 36.3963 6.77437 36.3079 6.78632C35.6505 6.87534 34.9405 7.00345 34.2901 7.16142C34.0084 7.22981 33.7305 7.32372 33.446 7.38235C33.4194 7.34164 33.4857 7.31341 33.515 7.29115C33.9688 6.95459 34.5659 6.66472 35.0908 6.4579C36.2992 5.98129 37.6291 5.74407 38.933 5.82712C39.5459 5.86675 40.1533 5.97695 40.739 6.1664C40.8574 6.2044 41.0295 6.29288 41.1386 6.31785C41.144 6.31893 41.15 6.31948 41.1559 6.32002L41.1478 6.31459L40.9198 6.155C40.9806 6.19734 41.0566 6.20711 41.1196 6.23425C41.1739 6.25759 41.2249 6.28474 41.2786 6.30971C41.334 6.29993 41.3899 6.28908 41.4322 6.28636C41.6765 6.27225 41.9539 6.26139 42.2074 6.27768C42.2557 6.28094 42.3035 6.28474 42.3491 6.29016C42.3762 6.29342 42.3963 6.29993 42.4191 6.31405C42.4338 6.29179 42.3947 6.28636 42.3789 6.27822C42.2552 6.21145 42.1037 6.136 41.9745 6.08117C41.6749 5.95361 41.296 5.83147 40.9822 5.73756C40.7526 5.66916 40.5154 5.62139 40.2841 5.56059C40.2765 5.54648 40.2684 5.53616 40.2793 5.51988C40.3015 5.48622 40.6658 5.38634 40.7325 5.37277C40.9784 5.32229 41.2488 5.3098 41.5028 5.32609C41.5327 5.32771 41.5625 5.33043 41.5924 5.33314C41.5994 5.33369 41.6059 5.33423 41.6108 5.33477C41.6315 5.33586 41.6293 5.33314 41.5978 5.3174L41.1668 5.20395C40.7124 5.07964 40.2201 4.95587 39.7418 4.90485C39.7038 4.9005 39.6664 4.89725 39.6289 4.89507C39.4715 4.8853 39.3135 4.88693 39.1572 4.8815C39.1431 4.83211 39.3412 4.76208 39.3792 4.74688C39.6539 4.63451 39.9829 4.58294 40.2782 4.54712L40.745 4.52106C40.6728 4.49555 40.5849 4.46406 40.5116 4.44506C40.2499 4.37558 39.972 4.31153 39.7066 4.25453C39.2891 4.16442 38.8679 4.09765 38.4428 4.07051C38.3679 4.06562 38.2925 4.06236 38.217 4.06019L38.2382 4.00699L39.0546 3.85229L39.4856 3.82732C39.2826 3.73123 39.0649 3.66989 38.8532 3.6015C38.2072 3.39196 37.5575 3.23997 36.8768 3.13249C36.8594 3.12977 36.835 3.12814 36.8078 3.12597H36.8029L36.7744 3.12428L36.7459 3.12217C36.6987 3.11946 36.6536 3.11566 36.6325 3.10806C36.6075 3.09883 36.601 3.09177 36.5961 3.06572C37.2633 2.93326 37.9684 2.8931 38.6594 2.93761C38.8972 2.95281 39.1333 2.97778 39.3657 3.01306C41.7569 3.37242 43.6709 4.85328 44.7121 7.01105C44.7875 7.16739 44.844 7.33458 44.9156 7.492C44.9248 7.51209 44.9216 7.53543 44.9498 7.5414C44.8331 7.1739 44.7028 6.80314 44.5313 6.4579C44.5042 6.40362 44.3522 6.16531 44.3543 6.13003C44.3554 6.11537 44.3646 6.11157 44.375 6.11211C44.3842 6.11266 44.3945 6.117 44.401 6.11971C44.6252 6.22665 44.8418 6.40687 45.0128 6.58492C45.0464 6.62021 45.0616 6.67449 45.1138 6.68969C45.1197 6.68861 45.1138 6.67123 45.11 6.66309C44.8266 6.08931 44.4732 5.51608 44.0569 5.02427C44.0031 4.96076 43.66 4.60954 43.66 4.57969C43.66 4.56449 43.672 4.56123 43.6861 4.56232C43.7002 4.56286 43.7165 4.56829 43.7235 4.571C44.091 4.69043 44.4271 4.93524 44.7354 5.15835C44.7441 5.16432 44.7691 5.18278 44.7859 5.18441C44.7929 5.18441 44.7984 5.18223 44.8011 5.17464C44.635 4.98084 44.4922 4.76914 44.3326 4.57046C43.9146 4.04988 43.425 3.48153 42.8621 3.12054C42.804 3.08363 42.8192 3.05432 42.8832 3.05106C43.3305 3.15311 43.7648 3.32628 44.1578 3.5673C44.1844 3.58358 44.2018 3.61398 44.2284 3.63244C44.268 3.65795 44.3038 3.67206 44.3462 3.70355C44.3543 3.70952 44.3587 3.71169 44.3614 3.71223C44.3674 3.71278 44.3668 3.70301 44.375 3.68781C44.3 3.64275 44.2468 3.55644 44.1882 3.48967C43.7274 2.96746 43.0895 2.38283 42.4881 2.04139C42.3958 1.98873 42.1944 1.92142 42.1276 1.86388C42.0891 1.83022 42.1602 1.81502 42.1862 1.81611C42.1949 1.81611 42.2036 1.81665 42.2123 1.81719C42.4609 1.83294 42.8843 1.94965 43.1042 2.0403C43.2535 2.10218 43.3989 2.19067 43.5482 2.25581C43.5596 2.26069 43.5764 2.2748 43.5884 2.27535C43.5944 2.27589 43.5987 2.27318 43.6014 2.26503L42.2698 1.04202C41.9637 0.795576 41.6657 0.538815 41.3454 0.309738C41.3117 0.285853 41.1538 0.222884 41.2216 0.180543C41.2238 0.178711 41.2276 0.178711 41.2325 0.178711ZM6.35721 20.7608V20.9552C6.18893 20.9812 5.98862 21.0198 5.75575 21.0719C5.52287 21.1229 5.30248 21.207 5.09566 21.3237C4.88829 21.4399 4.71024 21.6049 4.5615 21.8183C4.41277 22.0321 4.33134 22.3139 4.31886 22.6635C4.30583 23.1167 4.29606 23.5304 4.28954 23.9055C4.28303 24.2806 4.27652 24.6497 4.27055 25.0123C4.26349 25.3744 4.26077 25.7495 4.26077 26.1382V29.6715C4.26077 30.008 4.26349 30.3538 4.27055 30.7099C4.27652 31.0655 4.28032 31.4639 4.28032 31.9036C4.2928 32.3178 4.30909 32.7124 4.32863 33.0881C4.34817 33.4632 4.41603 33.7417 4.53274 33.923C4.58431 33.9876 4.68799 34.0522 4.84324 34.1168C4.99849 34.1814 5.18631 34.2362 5.40616 34.2818C5.62601 34.3268 5.8654 34.3665 6.12433 34.3985C6.38327 34.4311 6.64165 34.4468 6.90113 34.4468C7.00427 34.4468 7.16929 34.4435 7.39565 34.437C7.62256 34.4311 7.87172 34.4175 8.14368 34.3985C8.4151 34.3789 8.69358 34.3491 8.97802 34.3105C9.26247 34.272 9.51489 34.221 9.73528 34.1553C10.2526 34.0136 10.6831 33.8258 11.0261 33.5924C11.3687 33.36 11.6634 33.0913 11.9093 32.7874C12.1552 32.4828 12.3621 32.1528 12.5303 31.7972C12.6986 31.4406 12.8609 31.0693 13.0162 30.6806L13.21 30.7387L12.4918 34.7378H0.0288236V34.544C0.352354 34.4919 0.67263 34.4077 0.989646 34.2915C1.30666 34.1748 1.55582 34.0136 1.73713 33.8063C1.80173 33.7281 1.85655 33.6146 1.90215 33.467C1.94721 33.3177 1.98249 33.1462 2.00855 32.9513C2.0346 32.7575 2.0574 32.5539 2.07695 32.3401C2.09649 32.1267 2.10572 31.9166 2.10572 31.7093C2.10572 31.5285 2.10897 31.2826 2.11549 30.9721C2.122 30.6616 2.12797 30.3212 2.13503 29.9521C2.14154 29.5835 2.1448 29.2057 2.1448 28.8165V23.2459C2.1448 23.0125 2.13503 22.7959 2.11549 22.5951C2.09649 22.3948 2.06718 22.2162 2.02809 22.0609C1.98955 21.9057 1.93092 21.7835 1.8533 21.6929C1.67199 21.473 1.42934 21.3042 1.12535 21.1875C0.821366 21.0719 0.501094 20.9937 0.164535 20.9552V20.7608H6.35721ZM42.1271 6.76623C42.4001 6.93668 42.665 7.12179 42.9207 7.32372C42.9408 7.33947 42.9712 7.34652 42.9934 7.36009C42.9826 7.37475 42.9636 7.37584 42.9462 7.37475L42.937 7.37421C42.8979 7.37041 42.7828 7.35521 42.6677 7.33729C42.7768 7.44695 42.9022 7.57506 42.9652 7.60925C43.0119 7.63423 43.4282 7.69122 43.5097 7.69991C43.5129 7.69991 43.5156 7.70045 43.5189 7.70045L43.5366 7.70039C43.5483 7.69931 43.5594 7.69557 43.5667 7.68579C43.5439 7.67222 43.514 7.66517 43.4934 7.64943C43.064 7.31015 42.6118 7.01431 42.1271 6.76623Z" fill="#E0C469"/>
</svg>
