<svg width="16" height="28" viewBox="0 0 16 28" fill="none" xmlns="http://www.w3.org/2000/svg">
<path d="M15.25 1.50001V26.5C15.2502 26.7474 15.177 26.9892 15.0397 27.195C14.9023 27.4007 14.707 27.5611 14.4785 27.6558C14.25 27.7505 13.9985 27.7752 13.7559 27.7269C13.5133 27.6786 13.2905 27.5594 13.1156 27.3844L0.615631 14.8844C0.499411 14.7683 0.407213 14.6304 0.344307 14.4787C0.281402 14.3269 0.249023 14.1643 0.249023 14C0.249023 13.8357 0.281402 13.6731 0.344307 13.5213C0.407213 13.3696 0.499411 13.2317 0.615631 13.1156L13.1156 0.615633C13.2905 0.440619 13.5133 0.321409 13.7559 0.273096C13.9985 0.224783 14.25 0.249539 14.4785 0.34423C14.707 0.43892 14.9023 0.599288 15.0397 0.80503C15.177 1.01077 15.2502 1.25264 15.25 1.50001Z" fill="#101010"/>
</svg>
