<svg width="40" height="40" viewBox="0 0 40 40" fill="none" xmlns="http://www.w3.org/2000/svg">
<path d="M27.5 36.25C27.5 36.5815 27.3683 36.8994 27.1338 37.1338C26.8994 37.3683 26.5815 37.5 26.25 37.5H13.75C13.4184 37.5 13.1005 37.3683 12.8661 37.1338C12.6317 36.8994 12.5 36.5815 12.5 36.25C12.5 35.9184 12.6317 35.6005 12.8661 35.3661C13.1005 35.1317 13.4184 35 13.75 35H26.25C26.5815 35 26.8994 35.1317 27.1338 35.3661C27.3683 35.6005 27.5 35.9184 27.5 36.25ZM33.75 16.25C33.7553 18.3338 33.2846 20.3913 32.3737 22.2654C31.4627 24.1396 30.1356 25.7809 28.4937 27.064C28.1867 27.2994 27.9376 27.6018 27.7653 27.9481C27.5931 28.2945 27.5023 28.6756 27.5 29.0625V30C27.5 30.663 27.2366 31.2989 26.7677 31.7677C26.2989 32.2366 25.663 32.5 25 32.5H15C14.3369 32.5 13.701 32.2366 13.2322 31.7677C12.7634 31.2989 12.5 30.663 12.5 30V29.0625C12.4997 28.6803 12.4118 28.3032 12.2431 27.9603C12.0743 27.6174 11.8292 27.3177 11.5265 27.0843C9.88871 25.8088 8.56253 24.1774 7.64836 22.3136C6.7342 20.4498 6.256 18.4024 6.24996 16.3265C6.20934 8.87965 12.2281 2.67809 19.6687 2.49996C21.5021 2.45578 23.3257 2.7788 25.0324 3.44999C26.739 4.12118 28.2942 5.127 29.6063 6.40823C30.9184 7.68946 31.9609 9.22022 32.6725 10.9104C33.3842 12.6006 33.7505 14.4161 33.75 16.25ZM28.7328 14.7906C28.4086 12.9801 27.5376 11.3124 26.2369 10.012C24.9362 8.71158 23.2683 7.84089 21.4578 7.51715C21.2959 7.48986 21.1302 7.49472 20.9702 7.53147C20.8102 7.56821 20.6589 7.63611 20.5252 7.73129C20.3914 7.82647 20.2777 7.94706 20.1905 8.08619C20.1033 8.22532 20.0444 8.38025 20.0171 8.54215C19.9899 8.70405 19.9947 8.86973 20.0315 9.02975C20.0682 9.18976 20.1361 9.34097 20.2313 9.47475C20.3265 9.60852 20.4471 9.72224 20.5862 9.80941C20.7253 9.89657 20.8803 9.95548 21.0421 9.98278C23.6312 10.4187 25.8281 12.6156 26.2671 15.2093C26.3166 15.5005 26.4675 15.7647 26.6932 15.9552C26.9189 16.1456 27.2047 16.2501 27.5 16.25C27.5706 16.2495 27.6411 16.2438 27.7109 16.2328C28.0376 16.177 28.3288 15.9937 28.5205 15.7233C28.7121 15.4528 28.7885 15.1173 28.7328 14.7906Z" fill="#101010"/>
</svg>
