<svg width="240" height="207" viewBox="0 0 240 207" fill="none" xmlns="http://www.w3.org/2000/svg">
<path fill-rule="evenodd" clip-rule="evenodd" d="M81.4343 194.452L88.4369 201.893H88.4521V194.941C88.4521 194.771 88.5867 194.621 88.7713 194.621H90.3216C90.4888 194.621 90.6408 194.771 90.6408 194.941V206.271C90.6408 206.436 90.4888 206.57 90.3216 206.57H89.9178L82.8826 198.845H82.8631V206.084C82.8631 206.251 82.7306 206.403 82.5439 206.403H81.0131C80.8459 206.403 80.6939 206.251 80.6939 206.084V194.754C80.6939 194.585 80.8459 194.452 81.0131 194.452H81.4343ZM205.662 194.621C205.849 194.621 205.982 194.771 205.982 194.941V196.319C205.982 196.489 205.849 196.639 205.662 196.639H200.681V199.401H204.839C205.009 199.401 205.159 199.55 205.159 199.72V201.118C205.159 201.303 205.009 201.437 204.839 201.437H200.681V204.382H205.662C205.849 204.382 205.982 204.536 205.982 204.705V206.084C205.982 206.251 205.849 206.403 205.662 206.403H198.814C198.627 206.403 198.495 206.251 198.495 206.084V194.941C198.495 194.771 198.627 194.621 198.814 194.621H205.662ZM182.387 194.621C182.572 194.621 182.706 194.771 182.706 194.941V196.319C182.706 196.489 182.572 196.639 182.387 196.639H177.406V199.807H181.562C181.729 199.807 181.884 199.956 181.884 200.126V201.505C181.884 201.674 181.729 201.824 181.562 201.824H177.406V206.084C177.406 206.251 177.252 206.403 177.085 206.403H175.537C175.352 206.403 175.218 206.251 175.218 206.084V194.941C175.218 194.771 175.352 194.621 175.537 194.621H182.387ZM158.046 194.621C158.215 194.621 158.365 194.771 158.365 194.941V206.084C158.365 206.251 158.215 206.403 158.046 206.403H156.48C156.311 206.403 156.161 206.251 156.161 206.084V194.941C156.161 194.771 156.311 194.621 156.48 194.621H158.046ZM114.658 194.621C114.842 194.621 114.977 194.771 114.977 194.941V196.319C114.977 196.489 114.842 196.639 114.658 196.639H109.677V199.401H113.833C114 199.401 114.154 199.55 114.154 199.72V201.118C114.154 201.303 114 201.437 113.833 201.437H109.677V204.382H114.658C114.842 204.382 114.977 204.536 114.977 204.705V206.084C114.977 206.251 114.842 206.403 114.658 206.403H107.807C107.622 206.403 107.488 206.251 107.488 206.084V194.941C107.488 194.771 107.622 194.621 107.807 194.621H114.658ZM64.183 194.621C64.3676 194.621 64.5022 194.771 64.5022 194.941V196.319C64.5022 196.489 64.3676 196.639 64.183 196.639H59.2019V199.401H63.3579C63.5251 199.401 63.6792 199.55 63.6792 199.72V201.118C63.6792 201.303 63.5251 201.437 63.3579 201.437H59.2019V204.382H64.183C64.3676 204.382 64.5022 204.536 64.5022 204.705V206.084C64.5022 206.251 64.3676 206.403 64.183 206.403H57.3324C57.1478 206.403 57.0132 206.251 57.0132 206.084V194.941C57.0132 194.771 57.1478 194.621 57.3324 194.621H64.183ZM41.1576 194.621C41.3422 194.621 41.4768 194.771 41.4768 194.941V196.319C41.4768 196.489 41.3422 196.639 41.1576 196.639H38.5824V206.084C38.5824 206.251 38.4304 206.403 38.261 206.403H36.6977C36.5283 206.403 36.3763 206.251 36.3763 206.084V196.639H33.8011C33.6165 196.639 33.4819 196.489 33.4819 196.319V194.941C33.4819 194.771 33.6165 194.621 33.8011 194.621H41.1576ZM136.3 194.622C138.322 194.622 139.97 196.237 139.97 198.242C139.97 199.788 138.943 201.049 137.479 201.638L139.785 205.915C139.905 206.132 139.785 206.401 139.501 206.401H137.731C137.581 206.401 137.497 206.319 137.462 206.252L135.223 201.792H133.356V206.082C133.356 206.252 133.206 206.401 133.037 206.401H131.486C131.302 206.401 131.167 206.252 131.167 206.082V194.941C131.167 194.772 131.302 194.622 131.486 194.622H136.3ZM136.116 196.639H133.373V199.989H136.116C137.008 199.989 137.783 199.214 137.783 198.274C137.783 197.38 137.008 196.639 136.116 196.639ZM240 182.455V183.382H0.114214V182.455H240ZM84.6989 148.69V148.994C84.4145 149.035 84.1105 149.096 83.787 149.178C83.4613 149.256 83.1681 149.387 82.9054 149.554C82.6405 149.728 82.419 149.966 82.2366 150.268C82.0542 150.574 81.9544 150.959 81.9326 151.426C81.9131 151.953 81.8979 152.416 81.887 152.822C81.8762 153.228 81.8718 153.623 81.8718 154.007V160.057C81.8718 160.521 81.8762 160.973 81.887 161.407C81.8979 161.846 81.9022 162.306 81.9022 162.79C81.9218 163.863 82.0846 164.845 82.3886 165.724C82.6926 166.603 83.1182 167.355 83.6654 167.971C84.2126 168.592 84.8792 169.066 85.6695 169.4C86.4621 169.734 87.3632 169.904 88.375 169.904C89.5302 169.904 90.5073 169.771 91.3063 169.509C92.1076 169.246 92.7785 168.879 93.3148 168.412C93.8512 167.945 94.2767 167.411 94.5916 166.805C94.9043 166.193 95.1366 165.548 95.2886 164.858C95.4428 164.169 95.5426 163.466 95.5926 162.747C95.6425 162.026 95.6707 161.32 95.6707 160.632V155.469C95.6707 155.063 95.6642 154.646 95.6534 154.222C95.6425 153.795 95.6295 153.389 95.6099 153.004C95.5882 152.622 95.5578 152.262 95.5166 151.927C95.4753 151.591 95.4145 151.326 95.3342 151.119C95.1322 150.553 94.7827 150.092 94.2854 149.738C93.7904 149.387 93.0564 149.135 92.0837 148.994V148.69H99.6204V148.994C98.8691 149.096 98.2764 149.289 97.8421 149.573C97.4057 149.856 97.0669 150.29 96.8237 150.881C96.7629 151.02 96.7086 151.252 96.6565 151.575C96.6044 151.903 96.561 152.277 96.5219 152.7C96.4807 153.128 96.4481 153.575 96.4285 154.053C96.4068 154.531 96.3981 155.002 96.3981 155.469C96.3764 156.337 96.3525 157.31 96.3221 158.385C96.2939 159.457 96.257 160.676 96.2158 162.033C96.1962 162.417 96.1702 162.901 96.1398 163.49C96.1094 164.078 96.0138 164.701 95.851 165.357C95.6903 166.017 95.4319 166.675 95.0758 167.335C94.7219 167.993 94.2203 168.592 93.5732 169.129C92.924 169.667 92.0945 170.09 91.0805 170.403C90.0665 170.718 88.8201 170.877 87.3415 170.877C85.8845 170.877 84.6512 170.722 83.6502 170.421C82.647 170.114 81.8197 169.706 81.1727 169.189C80.5234 168.67 80.024 168.104 79.6679 167.487C79.314 166.868 79.0513 166.262 78.8776 165.663C78.706 165.066 78.604 164.517 78.5736 164.022C78.5432 163.527 78.5301 163.155 78.5301 162.912C78.5301 162.345 78.5323 161.605 78.5432 160.693C78.554 159.781 78.5584 158.769 78.5584 157.655V152.52C78.5584 152.155 78.5432 151.816 78.5128 151.502C78.4824 151.189 78.4389 150.904 78.376 150.65C78.3152 150.399 78.224 150.201 78.1046 150.058C77.818 149.712 77.4705 149.465 77.0558 149.315C76.6389 149.159 76.1677 149.055 75.6401 148.994V148.69H84.6989ZM232.367 148.355C233.279 148.355 234.058 148.431 234.707 148.585C235.354 148.737 235.889 148.902 236.301 149.084C236.718 149.267 237.031 149.436 237.246 149.586C237.458 149.738 237.574 149.814 237.595 149.814C237.656 149.814 237.782 149.69 237.975 149.451C238.166 149.206 238.344 148.963 238.507 148.722H238.839V154.341H238.507C238.262 153.672 237.949 153.008 237.565 152.352C237.178 151.694 236.733 151.106 236.227 150.589C235.719 150.072 235.142 149.651 234.497 149.327C233.845 149.006 233.127 148.839 232.338 148.839C231.709 148.839 231.116 148.932 230.56 149.117C230 149.295 229.516 149.573 229.099 149.935C228.686 150.302 228.358 150.75 228.13 151.288C227.896 151.824 227.776 152.437 227.776 153.127C227.776 154.2 228.1 155.062 228.747 155.709C229.396 156.358 230.234 156.875 231.264 157.259C231.67 157.422 232.047 157.566 232.401 157.685C232.753 157.807 233.103 157.924 233.448 158.037C233.791 158.147 234.141 158.263 234.492 158.384C234.848 158.506 235.213 158.638 235.598 158.779C236.974 159.285 238.04 160.021 238.798 160.983C239.556 161.945 239.936 163.146 239.936 164.585C239.936 165.554 239.738 166.427 239.343 167.2C238.948 167.968 238.399 168.624 237.702 169.174C237.002 169.721 236.164 170.125 235.192 170.387C234.223 170.65 233.157 170.783 232.004 170.783C231.01 170.783 230.158 170.722 229.451 170.6C228.741 170.481 228.154 170.333 227.687 170.161C227.221 169.99 226.873 169.831 226.639 169.69C226.406 169.547 226.259 169.475 226.198 169.475C226.137 169.475 226.005 169.597 225.803 169.842C225.601 170.085 225.418 170.32 225.258 170.541H224.984L224.891 164.492H225.195C225.379 165.041 225.609 165.573 225.896 166.09C226.176 166.603 226.489 167.091 226.823 167.547C227.155 168.003 227.507 168.403 227.885 168.746C228.258 169.091 228.617 169.354 228.962 169.536C229.307 169.721 229.763 169.903 230.33 170.085C230.899 170.266 231.444 170.359 231.971 170.359C233.472 170.359 234.686 169.947 235.619 169.128C236.549 168.305 237.016 167.2 237.016 165.799C237.016 165.233 236.926 164.735 236.744 164.31C236.559 163.884 236.312 163.515 235.999 163.202C235.684 162.887 235.315 162.618 234.89 162.395C234.464 162.173 234.008 161.971 233.522 161.789C233.033 161.604 232.61 161.454 232.245 161.333C231.882 161.209 231.542 161.094 231.229 160.983C230.912 160.872 230.588 160.762 230.256 160.649C229.922 160.538 229.52 160.39 229.055 160.208C228.528 160.006 228.022 159.726 227.538 159.372C227.049 159.016 226.626 158.603 226.259 158.126C225.896 157.652 225.601 157.125 225.379 156.545C225.153 155.967 225.045 155.357 225.045 154.708C225.045 153.612 225.242 152.671 225.642 151.881C226.044 151.091 226.578 150.435 227.253 149.907C227.928 149.38 228.704 148.987 229.587 148.737C230.467 148.481 231.394 148.355 232.367 148.355ZM138.551 148.355C139.46 148.355 140.242 148.431 140.889 148.585C141.538 148.737 142.068 148.902 142.485 149.084C142.9 149.267 143.215 149.436 143.425 149.586C143.64 149.738 143.758 149.814 143.777 149.814C143.838 149.814 143.964 149.69 144.157 149.451C144.348 149.206 144.524 148.963 144.689 148.722H145.023V154.341H144.689C144.444 153.672 144.131 153.008 143.747 152.352C143.362 151.694 142.915 151.106 142.409 150.589C141.901 150.072 141.323 149.651 140.676 149.327C140.027 149.006 139.311 148.839 138.52 148.839C137.891 148.839 137.298 148.932 136.74 149.117C136.184 149.295 135.698 149.573 135.283 149.935C134.866 150.302 134.542 150.75 134.31 151.288C134.076 151.824 133.96 152.437 133.96 153.127C133.96 154.2 134.284 155.062 134.931 155.709C135.578 156.358 136.416 156.875 137.445 157.259C137.849 157.422 138.229 157.566 138.583 157.685C138.937 157.807 139.285 157.924 139.63 158.037C139.973 158.147 140.32 158.263 140.674 158.384C141.028 158.506 141.397 158.638 141.782 158.779C143.156 159.285 144.222 160.021 144.98 160.983C145.738 161.945 146.116 163.146 146.116 164.585C146.116 165.554 145.918 166.427 145.523 167.2C145.128 167.968 144.583 168.624 143.881 169.174C143.184 169.721 142.348 170.125 141.376 170.387C140.403 170.65 139.341 170.783 138.184 170.783C137.191 170.783 136.34 170.722 135.632 170.6C134.922 170.481 134.334 170.333 133.869 170.161C133.402 169.99 133.053 169.831 132.82 169.69C132.588 169.547 132.44 169.475 132.38 169.475C132.319 169.475 132.186 169.597 131.985 169.842C131.783 170.085 131.6 170.32 131.44 170.541H131.164L131.073 164.492H131.379C131.559 165.041 131.793 165.573 132.076 166.09C132.36 166.603 132.669 167.091 133.003 167.547C133.337 168.003 133.691 168.403 134.067 168.746C134.44 169.091 134.801 169.354 135.146 169.536C135.489 169.721 135.945 169.903 136.512 170.085C137.081 170.266 137.628 170.359 138.153 170.359C139.652 170.359 140.87 169.947 141.801 169.128C142.733 168.305 143.197 167.2 143.197 165.799C143.197 165.233 143.108 164.735 142.926 164.31C142.741 163.884 142.494 163.515 142.181 163.202C141.866 162.887 141.497 162.618 141.072 162.395C140.646 162.173 140.19 161.971 139.704 161.789C139.217 161.604 138.792 161.454 138.429 161.333C138.064 161.209 137.723 161.094 137.411 160.983C137.096 160.872 136.77 160.762 136.438 160.649C136.104 160.538 135.702 160.39 135.235 160.208C134.71 160.006 134.204 159.726 133.717 159.372C133.231 159.016 132.805 158.603 132.44 158.126C132.076 157.652 131.783 157.125 131.559 156.545C131.337 155.967 131.225 155.357 131.225 154.708C131.225 153.612 131.424 152.671 131.824 151.881C132.223 151.091 132.76 150.435 133.435 149.907C134.11 149.38 134.888 148.987 135.769 148.737C136.651 148.481 137.578 148.355 138.551 148.355ZM178.362 148.387C180.084 148.387 181.63 148.689 182.995 149.297C184.363 149.907 185.523 150.721 186.476 151.746C187.429 152.769 188.157 153.945 188.665 155.285C189.171 156.621 189.423 158.021 189.423 159.48C189.423 161.098 189.121 162.6 188.513 163.975C187.905 165.354 187.078 166.55 186.035 167.562C184.993 168.574 183.777 169.353 182.39 169.903C181.002 170.45 179.528 170.721 177.967 170.721C176.427 170.721 174.968 170.456 173.589 169.918C172.213 169.382 171.007 168.622 169.974 167.638C168.94 166.656 168.126 165.48 167.527 164.112C166.93 162.746 166.632 161.243 166.632 159.602C166.632 157.856 166.945 156.295 167.575 154.905C168.2 153.518 169.049 152.341 170.111 151.379C171.175 150.417 172.421 149.677 173.85 149.16C175.279 148.643 176.783 148.387 178.362 148.387ZM60.9021 148.232C62.118 148.232 63.182 148.345 64.094 148.566C65.0059 148.79 65.7637 149.033 66.3739 149.296C66.9797 149.561 67.4465 149.806 67.7722 150.028C68.0958 150.251 68.2781 150.362 68.3172 150.362C68.3585 150.362 68.4345 150.316 68.5452 150.225C68.6581 150.132 68.7797 150.021 68.91 149.889C69.0425 149.758 69.1792 149.609 69.3204 149.435C69.4637 149.263 69.594 149.083 69.7156 148.901H70.05V155.708L69.6852 155.741C69.4224 154.768 69.0273 153.856 68.5018 153.005C67.972 152.153 67.351 151.415 66.6323 150.786C65.9114 150.158 65.1015 149.663 64.2004 149.296C63.2971 148.933 62.3417 148.751 61.3277 148.751C59.9293 148.751 58.683 149.066 57.5908 149.691C56.4964 150.319 55.5801 151.152 54.8397 152.184C54.1014 153.217 53.5325 154.388 53.1374 155.695C52.7422 157.002 52.5446 158.344 52.5446 159.721C52.5446 161.182 52.753 162.55 53.1678 163.824C53.5825 165.101 54.1753 166.209 54.9461 167.153C55.7169 168.093 56.6484 168.84 57.7428 169.385C58.8371 169.932 60.0509 170.204 61.3885 170.204C62.4416 170.204 63.4317 170.015 64.3523 169.631C65.2752 169.246 66.0959 168.736 66.8125 168.108C67.5334 167.483 68.1392 166.758 68.6364 165.935C69.1337 165.116 69.4746 164.27 69.6548 163.401H70.0196L69.9284 170.087H69.5636C69.3204 169.741 69.0685 169.426 68.8036 169.142C68.5409 168.858 68.3585 168.719 68.2564 168.719C68.2174 168.719 68.035 168.823 67.7114 169.038C67.3857 169.248 66.9211 169.483 66.3131 169.735C65.7051 169.989 64.9647 170.213 64.094 170.401C63.2232 170.597 62.2179 170.692 61.0867 170.692C59.2019 170.692 57.4996 170.423 55.9796 169.889C54.4597 169.35 53.1678 168.593 52.106 167.609C51.042 166.625 50.2256 165.451 49.6589 164.083C49.0921 162.715 48.8077 161.21 48.8077 159.569C48.8077 159.206 48.8337 158.789 48.8837 158.322C48.9336 157.855 49.0248 157.36 49.1573 156.833C49.2897 156.309 49.47 155.756 49.7045 155.178C49.9368 154.598 50.2364 154.019 50.6012 153.432C51.0268 152.742 51.5523 152.082 52.182 151.454C52.8095 150.829 53.5499 150.275 54.4011 149.798C55.2523 149.324 56.212 148.944 57.2868 148.66C58.3616 148.377 59.5645 148.232 60.9021 148.232ZM200.727 148.69L215.134 165.527V155.191C215.134 154.383 215.123 153.608 215.101 152.87C215.084 152.129 214.99 151.547 214.83 151.12C214.626 150.553 214.265 150.093 213.751 149.739C213.234 149.385 212.489 149.135 211.516 148.994V148.69H219.053V148.994C218.306 149.096 217.702 149.289 217.246 149.572C216.791 149.856 216.441 150.29 216.198 150.879C216.057 151.18 215.963 151.745 215.924 152.564C215.885 153.387 215.842 154.262 215.803 155.191C215.763 156.064 215.727 157.091 215.698 158.276C215.666 159.464 215.651 160.737 215.651 162.094V164.035C215.651 164.747 215.655 165.472 215.666 166.208C215.677 166.951 215.683 167.685 215.683 168.412V170.388C215.683 170.471 215.655 170.536 215.605 170.586C215.555 170.636 215.479 170.662 215.375 170.662C215.214 170.662 215.03 170.56 214.83 170.36C213.106 168.373 211.536 166.549 210.118 164.886C208.7 163.227 207.347 161.64 206.062 160.133C204.774 158.622 203.513 157.149 202.277 155.71C201.042 154.272 199.735 152.783 198.358 151.241V164.067C198.358 165.103 198.382 166.032 198.432 166.862C198.482 167.696 198.61 168.312 198.814 168.718C199.035 169.185 199.385 169.533 199.861 169.767C200.338 169.999 200.992 170.165 201.821 170.267V170.571H194.345V170.267C194.832 170.204 195.318 170.08 195.804 169.889C196.291 169.696 196.675 169.376 196.957 168.929C197.242 168.503 197.424 167.878 197.507 167.044C197.587 166.215 197.648 165.22 197.689 164.067C197.728 163.197 197.759 162.17 197.778 160.984C197.798 159.799 197.809 158.528 197.809 157.171V153.46C197.809 153.057 197.798 152.559 197.778 151.971C197.72 151.387 197.576 150.905 197.353 150.527C197.131 150.153 196.868 149.86 196.564 149.648C196.26 149.437 195.93 149.283 195.576 149.192C195.223 149.098 194.882 149.033 194.558 148.994V148.69H200.727ZM33.4617 148.689V148.995C33.1968 149.013 32.8928 149.056 32.5498 149.117C32.2045 149.178 31.8897 149.256 31.6074 149.358C31.323 149.462 31.0798 149.601 30.8778 149.783C30.6737 149.968 30.5738 150.2 30.5738 150.485C30.5738 150.769 30.715 151.143 30.9994 151.61C31.2839 152.074 31.6074 152.571 31.97 153.095C32.4781 153.826 32.9949 154.571 33.5225 155.329C34.048 156.089 34.6864 157.005 35.4355 158.078C36.1064 157.311 36.7882 156.471 37.4874 155.559C38.1866 154.647 38.7989 153.857 39.3265 153.188C39.5697 152.865 39.8324 152.459 40.1169 151.972C40.3992 151.486 40.5425 151.08 40.5425 150.758C40.5425 150.474 40.4448 150.231 40.2537 150.029C40.0604 149.825 39.8281 149.651 39.5545 149.512C39.2809 149.369 38.9813 149.256 38.6577 149.178C38.3342 149.095 38.0389 149.034 37.7762 148.995V148.689H45.7081V148.995C44.6745 149.217 43.7626 149.66 42.9722 150.315C42.1818 150.973 41.3415 151.842 40.4491 152.915C40.106 153.321 39.7261 153.777 39.3092 154.28C38.8944 154.791 38.4754 155.296 38.0498 155.802C37.6242 156.308 37.2181 156.801 36.8338 157.275C36.4473 157.752 36.1064 158.171 35.8003 158.534L35.9412 158.74C36.0338 158.872 36.1594 159.048 36.317 159.268C36.5819 159.63 36.8838 160.065 37.229 160.571C37.5742 161.081 37.9477 161.619 38.3538 162.197C38.7598 162.775 39.1485 163.328 39.5241 163.856C39.8998 164.381 40.2385 164.859 40.5425 165.282C40.8443 165.708 41.0679 166.032 41.2091 166.255C41.6151 166.844 41.9842 167.371 42.3186 167.836C42.653 168.301 42.9831 168.7 43.3066 169.037C43.6323 169.371 43.9645 169.645 44.3098 169.858C44.655 170.068 45.0393 170.205 45.4649 170.266V170.572H35.6179V170.266C35.9023 170.227 36.2063 170.179 36.532 170.129C36.8534 170.079 37.1573 170.003 37.4418 169.903C37.7241 169.803 37.9586 169.66 38.141 169.475C38.3234 169.297 38.4146 169.063 38.4146 168.778C38.4146 168.496 38.2843 168.114 38.0194 167.638C37.7545 167.163 37.4527 166.661 37.1074 166.134C36.6406 165.404 36.1086 164.609 35.5136 163.75C34.9144 162.887 34.2304 161.921 33.4617 160.846C33.136 161.231 32.7821 161.654 32.3956 162.121C32.0113 162.588 31.6269 163.059 31.2426 163.537C30.8583 164.01 30.487 164.475 30.133 164.92C29.7791 165.365 29.4795 165.76 29.2363 166.103C28.9518 166.509 28.7 166.915 28.4763 167.317C28.2548 167.723 28.1441 168.107 28.1441 168.474C28.1441 168.757 28.2331 169.006 28.4155 169.217C28.6001 169.432 28.8302 169.608 29.1147 169.749C29.397 169.892 29.7031 170.003 30.0266 170.085C30.3524 170.166 30.6542 170.227 30.9386 170.266V170.572H22.8851V170.266C23.695 170.044 24.5353 169.606 25.406 168.943C26.2767 168.288 27.1692 167.441 28.0811 166.405C28.3851 166.064 28.7608 165.623 29.2059 165.085C29.651 164.549 30.1178 163.993 30.6042 163.415C31.0906 162.838 31.5553 162.273 32.0004 161.728C32.4477 161.181 32.8212 160.725 33.1273 160.36C33.0057 160.197 32.7256 159.811 32.2914 159.188C31.8549 158.571 31.3642 157.878 30.817 157.11C30.2699 156.337 29.7292 155.572 29.1907 154.814C28.6544 154.054 28.2244 153.451 27.8987 153.006C27.4731 152.417 27.0953 151.903 26.7588 151.453C26.4244 151.008 26.1009 150.632 25.7882 150.315C25.4734 150.003 25.139 149.738 24.785 149.525C24.4311 149.314 24.0185 149.134 23.5539 148.995V148.689H33.4617ZM112.719 148.66C114.076 148.66 115.281 148.699 116.335 148.782C117.388 148.862 118.352 149.134 119.222 149.601C120.113 150.067 120.831 150.699 121.379 151.501C121.928 152.302 122.199 153.311 122.199 154.523C122.199 155.274 122.063 155.95 121.789 156.547C121.515 157.146 121.151 157.669 120.695 158.125C120.239 158.581 119.709 158.972 119.099 159.296C118.493 159.619 117.855 159.893 117.186 160.119V160.208C117.531 160.392 117.863 160.653 118.189 160.998C118.512 161.343 118.827 161.728 119.129 162.155C119.657 162.922 120.228 163.751 120.849 164.646C121.465 165.536 122.017 166.326 122.503 167.017C123.255 168.068 123.982 168.841 124.692 169.325C125.402 169.809 126.232 170.126 127.185 170.265V170.571H120.953C120.771 170.387 120.64 170.252 120.56 170.161C120.477 170.068 120.386 169.963 120.286 169.842C120.184 169.72 120.058 169.544 119.906 169.31C119.752 169.078 119.516 168.728 119.192 168.261C118.808 167.694 118.467 167.182 118.174 166.726C117.878 166.27 117.581 165.821 117.277 165.375C116.973 164.93 116.643 164.476 116.289 164.02C115.935 163.565 115.514 163.056 115.027 162.488C114.621 162.021 114.183 161.586 113.707 161.18C113.23 160.777 112.728 160.52 112.202 160.42C111.816 160.34 111.523 160.299 111.321 160.299C111.136 160.299 110.906 160.29 110.622 160.268V163.701C110.622 164.674 110.63 165.497 110.652 166.166C110.672 166.811 110.691 167.371 110.711 167.836C110.732 168.302 110.845 168.687 111.047 168.991C111.208 169.253 111.523 169.523 111.988 169.796C112.454 170.068 113.104 170.226 113.935 170.265V170.571H104.21V170.265C104.716 170.187 105.202 170.066 105.669 169.903C106.134 169.742 106.498 169.497 106.761 169.175C106.863 169.051 106.943 168.869 107.004 168.624C107.065 168.385 107.113 168.107 107.143 167.805C107.171 167.501 107.195 167.178 107.217 166.832C107.237 166.489 107.247 166.155 107.247 165.831C107.247 165.547 107.252 165.16 107.263 164.674C107.274 164.19 107.282 163.658 107.293 163.08C107.304 162.503 107.308 161.91 107.308 161.304V153.611C107.308 153.248 107.304 152.879 107.293 152.502C107.282 152.128 107.263 151.774 107.232 151.44C107.202 151.105 107.152 150.801 107.08 150.528C107.009 150.254 106.915 150.057 106.792 149.935C106.49 149.611 106.149 149.392 105.775 149.281C105.4 149.171 104.937 149.073 104.392 148.995V148.689L106.171 148.688C106.721 148.687 107.324 148.684 107.977 148.676C108.848 148.665 109.718 148.66 110.591 148.66H112.719ZM17.0494 148.688L19.1165 153.706L18.8125 153.856C17.171 151.81 15.6315 150.434 14.1941 149.724C13.8488 149.561 13.2105 149.418 12.279 149.296C11.3453 149.177 10.214 149.116 8.87646 149.116C8.45087 149.116 8.00792 149.131 7.55194 149.159C7.09813 149.192 6.76808 149.229 6.56398 149.268C6.52489 149.591 6.49015 150.262 6.45975 151.274C6.42935 152.286 6.41415 153.461 6.41415 154.796L6.415 157.121C6.41673 157.48 6.42121 157.785 6.42935 158.036C6.43804 158.37 6.44455 158.628 6.44455 158.811V159.145H7.05035C7.35434 159.145 7.70392 159.134 8.09911 159.113C8.49429 159.095 8.88948 159.069 9.28467 159.037C9.67985 159.008 10.0099 158.963 10.2726 158.902C10.8806 158.761 11.3865 158.568 11.7926 158.322C12.1964 158.079 12.5265 157.788 12.7805 157.443C13.0324 157.098 13.2365 156.696 13.3863 156.24C13.5405 155.784 13.6751 155.274 13.7989 154.707H14.1637V164.28H13.7989C13.636 163.633 13.3863 162.962 13.0541 162.272C12.7197 161.586 12.3702 161.069 12.0054 160.726C11.6818 160.441 11.291 160.207 10.835 160.025C10.379 159.842 9.84705 159.731 9.23908 159.69C8.93726 159.668 8.68103 159.655 8.48127 159.645C8.27716 159.638 8.07523 159.629 7.87113 159.629H6.47494C6.43369 159.914 6.41415 160.331 6.41415 160.876V164.524C6.41415 164.847 6.4185 165.155 6.42935 165.451C6.43804 165.744 6.44455 165.994 6.44455 166.193C6.46409 166.843 6.501 167.455 6.55095 168.033C6.60089 168.61 6.71814 169.042 6.90053 169.324C7.08075 169.609 7.51719 169.809 8.20551 169.932C8.896 170.054 9.64511 170.115 10.455 170.115C10.8003 170.115 11.2389 170.104 11.7774 170.087C12.3137 170.065 12.8761 170.015 13.4645 169.932C14.1116 169.852 14.7109 169.696 15.258 169.461C15.803 169.229 16.3307 168.897 16.8388 168.473C17.3447 168.05 17.8333 167.527 18.311 166.908C18.7865 166.291 19.2772 165.548 19.7853 164.676L20.1197 164.765L18.5997 170.571H0V170.265C0.508095 170.186 0.977111 170.054 1.41355 169.872C1.84999 169.691 2.20826 169.435 2.49271 169.114C2.59259 168.99 2.6751 168.814 2.73589 168.582C2.79669 168.347 2.85098 168.078 2.90309 167.774C2.9552 167.472 2.98776 167.153 3.00948 166.819C3.02902 166.484 3.03988 166.154 3.03988 165.831C3.03988 165.548 3.04423 165.16 3.05508 164.676C3.06594 164.189 3.07462 163.659 3.08548 163.08C3.09634 162.502 3.10069 161.909 3.10069 161.303V153.613C3.10069 153.25 3.09634 152.872 3.08548 152.488C3.07462 152.104 3.05508 151.737 3.02468 151.393C2.99429 151.053 2.94435 150.74 2.87269 150.466C2.80104 150.193 2.7055 149.995 2.5839 149.874C2.28209 149.55 1.95638 149.342 1.61113 149.253C1.26589 149.159 0.820763 149.072 0.273584 148.994V148.688H17.0494ZM161.161 148.69V148.994C160.736 149.055 160.28 149.168 159.793 149.329C159.307 149.489 158.931 149.813 158.668 150.301C158.486 150.647 158.388 151.081 158.38 151.608C158.369 152.132 158.354 152.631 158.334 153.096C158.334 153.604 158.33 154.103 158.319 154.601C158.308 155.098 158.304 155.597 158.304 156.103V166.287C158.304 166.873 158.312 167.44 158.334 167.989C158.354 168.534 158.445 168.918 158.608 169.142C158.851 169.487 159.235 169.748 159.763 169.932C160.288 170.115 160.766 170.226 161.191 170.267V170.571H151.983V170.267C152.489 170.186 152.96 170.054 153.396 169.872C153.831 169.691 154.2 169.426 154.506 169.081C154.606 168.96 154.682 168.79 154.734 168.564C154.784 168.341 154.823 168.078 154.853 167.774C154.884 167.472 154.903 167.153 154.914 166.819C154.925 166.484 154.932 166.154 154.932 165.831C154.932 165.548 154.934 165.16 154.945 164.676C154.955 164.191 154.964 163.659 154.975 163.082C154.986 162.502 154.99 161.909 154.99 161.303V152.52C154.99 152.153 154.975 151.817 154.945 151.5C154.914 151.189 154.871 150.905 154.808 150.649C154.747 150.399 154.656 150.201 154.536 150.058C154.25 149.713 153.902 149.465 153.488 149.313C153.071 149.159 152.599 149.055 152.072 148.994V148.69H161.161ZM177.997 148.901C176.679 148.901 175.539 149.221 174.577 149.859C173.615 150.5 172.825 151.325 172.208 152.336C171.589 153.351 171.133 154.499 170.84 155.785C170.547 157.074 170.4 158.373 170.4 159.691C170.4 161.07 170.562 162.394 170.886 163.673C171.209 164.948 171.691 166.072 172.33 167.045C172.968 168.018 173.767 168.797 174.729 169.386C175.693 169.974 176.814 170.265 178.088 170.265C179.365 170.265 180.475 169.942 181.417 169.297C182.359 168.645 183.143 167.809 183.771 166.787C184.4 165.762 184.869 164.613 185.184 163.339C185.499 162.062 185.655 160.785 185.655 159.508C185.655 158.273 185.499 157.027 185.184 155.769C184.869 154.514 184.394 153.374 183.755 152.352C183.117 151.329 182.322 150.5 181.371 149.859C180.418 149.221 179.293 148.901 177.997 148.901ZM112.504 149.116C112.079 149.116 111.736 149.127 111.473 149.145C111.208 149.166 111.006 149.188 110.865 149.205C110.845 149.329 110.824 149.436 110.802 149.527C110.782 149.616 110.767 149.733 110.759 149.874C110.748 150.018 110.737 150.215 110.728 150.467C110.717 150.721 110.702 151.081 110.683 151.548C110.661 152.254 110.648 153.055 110.637 153.945C110.626 154.84 110.622 155.698 110.622 156.532V159.873C111.451 159.873 112.226 159.838 112.947 159.767C113.664 159.695 114.359 159.552 115.027 159.324C115.677 159.124 116.232 158.851 116.699 158.505C117.166 158.162 117.544 157.769 117.839 157.335C118.132 156.901 118.352 156.432 118.493 155.924C118.634 155.418 118.704 154.89 118.704 154.341C118.704 153.329 118.452 152.428 117.946 151.637C117.438 150.847 116.699 150.219 115.727 149.753C115.24 149.529 114.73 149.368 114.194 149.268C113.655 149.166 113.093 149.116 112.504 149.116ZM81.4172 82.3293V83.1045C80.6919 83.2087 79.9146 83.3629 79.0851 83.5713C78.2579 83.7754 77.5066 84.1033 76.8356 84.5419C76.1625 84.9827 75.5914 85.5907 75.1246 86.3658C74.6599 87.141 74.3994 88.1246 74.3494 89.3167C74.2973 90.6629 74.2582 91.8528 74.2344 92.8885C74.2061 93.9243 74.1931 94.9318 74.1931 95.9154V111.371C74.1931 112.559 74.2061 113.712 74.2344 114.826C74.2582 115.937 74.2734 117.116 74.2734 118.358C74.3234 121.101 74.7381 123.6 75.5154 125.852C76.2906 128.103 77.3785 130.016 78.7746 131.597C80.1752 133.178 81.8818 134.394 83.9012 135.245C85.9184 136.1 88.2222 136.528 90.8126 136.528C93.7634 136.528 96.2583 136.194 98.3059 135.519C100.351 134.848 102.058 133.914 103.43 132.724C104.8 131.532 105.888 130.162 106.692 128.607C107.495 127.055 108.09 125.4 108.479 123.637C108.865 121.878 109.124 120.078 109.254 118.239C109.382 116.404 109.447 114.606 109.447 112.843V99.6436C109.447 98.61 109.434 97.5461 109.41 96.4582C109.382 95.3747 109.343 94.3368 109.293 93.3532C109.241 92.3718 109.165 91.4533 109.061 90.5978C108.956 89.7444 108.8 89.0583 108.594 88.5415C108.075 87.0911 107.185 85.912 105.914 85.0087C104.646 84.1033 102.77 83.4671 100.286 83.1045V82.3293H119.542V83.1045C117.627 83.3629 116.113 83.8558 115.001 84.581C113.885 85.3062 113.021 86.4201 112.4 87.9205C112.244 88.2831 112.1 88.8781 111.972 89.7054C111.842 90.5348 111.725 91.488 111.621 92.578C111.519 93.6659 111.44 94.8167 111.39 96.0305C111.338 97.2486 111.31 98.4559 111.31 99.6436C111.258 101.869 111.197 104.355 111.117 107.098C111.041 109.84 110.947 112.947 110.845 116.415C110.793 117.399 110.73 118.643 110.652 120.143C110.574 121.648 110.326 123.237 109.914 124.918C109.499 126.603 108.839 128.286 107.934 129.966C107.028 131.651 105.747 133.178 104.09 134.548C102.434 135.92 100.31 137.008 97.7218 137.809C95.1336 138.611 91.9504 139.012 88.1722 139.012C84.444 139.012 81.2999 138.624 78.7377 137.848C76.1734 137.073 74.065 136.024 72.4082 134.704C70.7493 133.382 69.4704 131.936 68.565 130.355C67.6595 128.774 66.9864 127.224 66.5456 125.693C66.1049 124.169 65.8465 122.771 65.7705 121.505C65.6901 120.237 65.6532 119.288 65.6532 118.667C65.6532 117.221 65.6641 115.327 65.6901 113.002C65.7162 110.67 65.7314 108.081 65.7314 105.235V92.1112C65.7314 91.1797 65.6901 90.3155 65.6141 89.5099C65.5359 88.7109 65.4209 87.9857 65.2645 87.3343C65.1104 86.6894 64.8759 86.1856 64.5654 85.823C63.8401 84.9436 62.9477 84.3074 61.8859 83.9209C60.8263 83.5322 59.6212 83.2586 58.2771 83.1045V82.3293H81.4172ZM164.93 0C165.108 0.011671 165.657 0.324345 165.801 0.378628C171.683 2.59123 176.432 5.71796 180.197 10.749C184.585 16.6181 186.435 24.0463 186.111 31.3159C188.152 29.3856 190.382 27.6616 192.829 26.2784C197.689 23.5338 202.948 22.3678 208.148 22.7001C212.941 23.0084 217.678 24.5869 221.999 27.3793C222.429 27.7289 222.913 28.0155 223.385 28.3108L223.172 28.4063C220.049 27.4466 216.855 26.7301 213.62 26.3067C212.663 26.1829 211.692 26.1481 210.737 26.0005L210.645 26.0548C212.626 26.8755 214.18 28.3434 215.65 29.8503C215.728 29.9784 215.742 30.0935 215.559 30.0913C214.686 29.6614 213.846 29.1576 212.951 28.7668C211.134 27.9764 209.23 27.6008 207.271 27.3684C206.416 27.2686 205.523 27.2924 204.689 27.0927C204.633 27.1817 204.844 27.2382 204.904 27.2599C205.093 27.3337 205.306 27.3446 205.495 27.4162C207.44 28.161 209.017 29.0968 210.585 30.4452C210.706 30.5495 210.704 30.7145 210.539 30.7036C210.509 30.7015 210.474 30.6949 210.435 30.6797C208.776 30.0783 207.045 29.6093 205.263 29.4551C205.163 29.4464 205.063 29.4399 204.963 29.4334C202.872 29.2988 200.785 29.6505 198.696 29.5724C198.638 29.6636 198.79 29.6853 198.851 29.6961C200.375 29.9328 201.849 30.1912 203.202 31.0337C203.315 31.1032 203.497 31.2096 203.361 31.3333C203.291 31.3919 201.784 31.3485 201.543 31.3594C199.491 31.4614 197.487 31.7654 195.474 32.1302C195.387 32.1454 194.243 32.2692 194.286 32.3539C194.981 32.4624 195.685 32.5688 196.354 32.825C196.521 32.8902 196.981 33.0031 196.797 33.1985C196.74 33.2593 195.409 33.3722 195.172 33.4221C194.202 33.6241 193.173 34.0649 192.265 34.4666C192.185 34.5013 192.091 34.4926 192.067 34.6034C192.873 34.4231 193.672 34.1734 194.484 34.0193C196.962 33.5503 199.493 33.4048 202.012 33.5655C207.312 33.9064 212.539 35.6065 216.997 38.5205C221.172 41.2498 226.157 46.3503 228.188 50.9666C228.199 50.9905 228.481 51.3683 228.346 51.4031C228.246 51.3618 228.157 51.3184 228.073 51.2511C227.554 50.8363 226.989 50.1719 226.455 49.7072C224.959 48.3979 223.38 47.2189 221.823 46.029C220.681 45.1561 219.552 44.2637 218.373 43.4407L219.615 45.4492C219.891 46.194 220.501 47.1928 220.636 47.9636C220.649 48.0331 220.679 48.3067 220.579 48.3002C220.562 48.298 220.542 48.2893 220.518 48.272C220.258 47.8703 219.926 47.5272 219.617 47.1602C217.887 45.1018 215.824 43.4234 213.609 41.9338C213.203 41.6624 212.778 41.4127 212.378 41.1304L213.722 43.0607C214.376 44.1508 215.127 45.2799 215.442 46.5392C215.464 46.6261 215.624 47.1993 215.422 47.1885C215.414 47.1863 215.403 47.1863 215.394 47.182C215.351 47.1711 214.916 46.6066 214.819 46.4958C214.567 46.2049 214.311 45.89 214.013 45.6012C211.946 43.5949 209.538 42.075 207.126 40.5789L207.749 41.1C208.739 42.0663 209.66 43.0998 210.435 44.2441C210.554 44.42 211.127 45.2191 211.054 45.3754C211.03 45.4232 210.967 45.4688 210.923 45.4666C210.919 45.4666 210.915 45.4644 210.91 45.4644C210.854 45.4449 210.148 44.8195 209.992 44.711C207.953 43.2953 205.638 42.3551 203.337 41.467C202.618 41.1912 201.867 40.9784 201.159 40.6766C201.131 40.7852 201.215 40.8286 201.291 40.8764C201.875 41.2477 202.472 41.6624 202.998 42.1206C203.193 42.2921 203.914 42.9761 204.01 43.1585C204.053 43.2388 204.023 43.2627 203.962 43.2583C203.849 43.2518 203.634 43.1498 203.604 43.1411C200.696 42.4311 197.791 41.4236 194.916 40.694C194.567 40.605 194.18 40.4291 193.82 40.3748C193.778 40.3683 193.759 40.3509 193.744 40.3487C193.726 40.3487 193.715 40.3661 193.689 40.4443L195.114 41.721C195.257 41.8253 195.628 41.8709 196.011 41.8947C196.293 41.9121 196.582 41.9208 196.788 41.9338C196.836 41.936 196.879 41.9403 196.918 41.9447C211.512 43.4842 222.399 56.0888 224.566 70.0723C224.616 70.4001 224.915 72.5346 224.816 72.6692C224.79 72.7018 224.768 72.7148 224.75 72.7126C224.72 72.7105 224.694 72.6714 224.664 72.6323C224.525 72.4499 224.327 72.033 224.218 71.8115C223.845 71.0385 223.582 70.1808 223.22 69.4057C221.962 66.7262 220.358 64.2096 218.886 61.6475L218.794 61.6344C218.97 62.6007 219.094 63.5821 219.129 64.5636C219.155 65.3301 219.183 66.4722 219.107 67.2148C219.103 67.2626 219.033 67.7945 218.933 67.788C218.925 67.788 218.916 67.7837 218.91 67.775C218.866 67.6621 218.762 67.5709 218.716 67.4601C218.503 66.926 218.414 65.8534 218.228 65.2106C218.03 64.5397 217.713 63.7016 217.446 63.0415C216.693 61.1806 215.735 59.4153 214.771 57.6544C214.747 57.6457 214.73 57.6413 214.714 57.6392C214.571 57.6305 214.745 57.9866 214.76 58.0647C215.045 59.754 215.025 61.832 214.671 63.5126C214.639 63.6712 214.567 64.2444 214.365 64.2314C214.348 64.2314 214.332 64.227 214.315 64.2183C214.267 64.1966 214.272 63.3172 214.254 63.1739C213.994 61.1111 213.121 59.17 211.989 57.4459C211.399 56.5426 210.713 55.6915 210.105 54.7947C209.955 54.8273 210.061 54.8837 210.087 54.938C210.604 55.9868 210.867 56.7077 211.073 57.8628C211.125 58.1473 211.392 60.0863 211.31 60.1948C211.266 60.2513 211.234 60.2708 211.21 60.2687C211.14 60.2643 211.13 60.0971 211.121 60.0754C209.451 56.5057 206.919 53.6352 204.275 50.769C204.216 50.743 204.188 50.7299 204.177 50.7278C204.16 50.7278 204.192 50.7603 204.227 50.8298C204.37 51.1034 204.568 51.3683 204.7 51.6419C205.093 52.4453 205.376 53.3942 205.523 54.2779C205.545 54.4147 205.686 55.229 205.588 55.2637C205.478 55.2376 205.456 55.1573 205.402 55.0813C205.119 54.7013 204.894 54.2475 204.613 53.8675C203.044 51.7309 200.985 49.768 198.814 48.2524C198.749 48.2655 199.213 48.8669 199.25 48.9299C199.585 49.4575 200.034 50.2913 200.24 50.8711C200.297 51.0296 200.403 51.2098 200.297 51.3661C199.902 51.0839 199.554 50.7299 199.168 50.4368C197.183 48.9234 194.983 47.7378 192.719 46.6934L193.394 47.1537C205.534 53.7199 213.941 68.1354 211.922 82.0668C211.913 82.1254 211.896 82.2448 211.883 82.3295H231.36L236.639 95.1404L235.863 95.5291C231.671 90.3005 227.734 86.7808 224.06 84.9677C223.181 84.5551 221.548 84.1925 219.168 83.8799C217.083 83.6106 214.532 83.4782 211.653 83.4434C211.622 83.5172 211.599 83.5867 211.497 83.6019C211.484 83.5476 211.477 83.4912 211.464 83.4391C211.117 83.4347 210.828 83.413 210.469 83.413C209.386 83.413 208.259 83.4543 207.095 83.5324C205.927 83.6084 205.087 83.7018 204.57 83.8017C204.466 84.6311 204.377 86.34 204.299 88.9282C204.218 91.5187 204.183 94.5194 204.183 97.935V102.903C204.183 104.251 204.194 105.352 204.218 106.203C204.246 107.059 204.257 107.719 204.257 108.186V109.041H205.812C206.589 109.041 207.482 109.015 208.491 108.961C209.501 108.911 210.509 108.846 211.518 108.768C212.528 108.69 213.37 108.575 214.044 108.42C215.598 108.058 216.89 107.565 217.924 106.944C218.962 106.323 219.802 105.572 220.449 104.692C221.096 103.813 221.615 102.79 222.004 101.626C222.392 100.458 222.74 99.1509 223.052 97.7005H223.982V122.161H223.052C222.636 120.506 222.004 118.797 221.148 117.036C220.295 115.277 219.4 113.959 218.471 113.076C217.641 112.355 216.647 111.758 215.479 111.291C214.315 110.826 212.956 110.542 211.403 110.438C210.628 110.388 209.979 110.349 209.462 110.322C208.943 110.294 208.426 110.283 207.909 110.283H204.338C204.233 111.009 204.183 112.068 204.183 113.464V122.782C204.183 123.611 204.194 124.401 204.218 125.153C204.246 125.902 204.257 126.538 204.257 127.055C204.309 128.712 204.403 130.275 204.531 131.751C204.661 133.228 204.959 134.329 205.425 135.052C205.888 135.777 207.002 136.294 208.765 136.607C210.524 136.915 212.439 137.073 214.51 137.073C215.39 137.073 216.512 137.047 217.889 136.995C219.257 136.943 220.692 136.815 222.197 136.607C223.854 136.398 225.378 135.999 226.778 135.404C228.177 134.807 229.523 133.966 230.815 132.878C232.107 131.791 233.364 130.46 234.582 128.879C235.798 127.302 237.051 125.4 238.347 123.175L239.203 123.407L235.321 138.237H187.798V137.462C189.09 137.254 190.293 136.915 191.407 136.452C192.521 135.986 193.44 135.339 194.165 134.509C194.423 134.196 194.632 133.745 194.786 133.152C194.94 132.557 195.083 131.871 195.214 131.091C195.342 130.316 195.433 129.5 195.487 128.646C195.537 127.791 195.561 126.951 195.561 126.121C195.561 125.4 195.576 124.417 195.6 123.175C195.626 121.93 195.652 120.571 195.68 119.095C195.704 117.618 195.715 116.107 195.715 114.552V94.9081C195.715 93.9744 195.704 93.019 195.68 92.0354C195.652 91.0518 195.6 90.1203 195.522 89.2387C195.446 88.3572 195.318 87.569 195.133 86.872C194.955 86.1706 194.708 85.6647 194.397 85.3564C193.622 84.5269 192.793 83.9949 191.913 83.7648C191.029 83.5324 189.896 83.3131 188.496 83.1047V82.3295H211.232C211.112 81.7107 210.986 81.094 210.847 80.4795C210.391 78.4624 209.799 76.5603 209.219 74.5843C208.978 73.757 208.832 72.9015 208.494 72.1047C208.407 72.1047 208.422 72.248 208.415 72.3109C208.263 73.6832 208.224 74.9535 207.701 76.2758C207.616 76.4908 206.976 77.824 206.878 77.837H206.85C206.607 77.8218 206.856 77.1443 206.88 76.962C207.265 74.0741 206.157 70.9169 205.465 68.1376C205.43 67.9943 205.445 67.6621 205.326 67.6556C205.317 67.6556 205.308 67.6556 205.297 67.6577C205.26 68.0573 205.254 68.4611 205.2 68.8563C205.085 69.6945 204.891 70.7953 204.585 71.577C204.496 71.8094 203.758 73.3705 203.667 73.4205C203.638 73.4379 203.612 73.4444 203.591 73.4422C203.554 73.44 203.519 73.4205 203.48 73.3944L203.628 72.188L203.671 71.5814C203.743 68.9888 202.574 66.4027 202.105 63.8839C201.914 64.0837 201.969 64.4463 201.919 64.7091C201.686 65.938 201.28 67.5231 200.653 68.6023C200.583 68.7217 200.503 68.789 200.444 68.7847C200.394 68.7825 200.36 68.726 200.36 68.6066C200.36 68.3309 200.46 67.9465 200.466 67.6317C200.518 64.9674 199.498 62.3141 198.525 59.8843C198.442 59.9408 198.482 60.1644 198.488 60.2556C198.549 61.2631 198.564 62.2033 198.28 63.1956C198.264 63.2477 198.169 63.5322 198.075 63.5257C198.062 63.5257 198.047 63.5192 198.034 63.504C197.357 60.4011 195.819 57.5762 193.969 55.0162C193.811 55.0466 193.939 55.1182 193.948 55.1486C193.98 55.2746 194.056 55.3983 194.085 55.5243C194.321 56.5296 194.286 57.511 194.276 58.5381L194.124 58.6792C193.44 56.7967 192.447 55.1139 191.29 53.481C190.66 52.593 189.968 51.7592 189.316 50.895C189.188 51.1273 189.401 51.4335 189.447 51.6571C189.503 51.9481 189.572 52.3671 189.588 52.6603C189.59 52.6907 189.655 52.7276 189.646 52.758C189.616 52.86 189.581 52.8969 189.544 52.8948C189.449 52.8883 189.34 52.619 189.271 52.5256C188.055 50.8732 186.659 49.1948 184.948 48.0462L186.787 50.8776C192.013 59.9603 191.911 70.8214 186.357 79.6045C185.827 80.4426 185.312 81.2873 184.68 82.0842C182.507 84.8309 179.424 87.6037 176.243 89.1389C176.19 89.1649 176.119 89.2214 176.052 89.217C176.032 89.2149 176.012 89.2083 175.995 89.1953C175.882 89.115 176.025 89.0455 176.06 88.9999C176.692 88.1726 177.446 87.4409 178.11 86.644C178.733 85.897 179.315 85.1132 179.903 84.3337C180.409 83.6671 180.92 83.007 181.41 82.3295C182.036 81.4632 182.661 80.5946 183.282 79.7326C183.354 79.6305 183.456 79.5459 183.536 79.4416C183.577 79.3895 183.623 79.3439 183.636 79.2679C183.51 79.2657 183.412 79.3504 183.317 79.4286C183.282 79.4568 183.245 79.4894 183.208 79.5111C181.812 80.3297 179.523 81.4892 177.836 81.3828L177.763 81.3763C177.678 81.3698 177.528 81.3481 177.626 81.2417C178.77 80.6967 179.78 80.0605 180.759 79.2788C180.861 79.1963 180.972 79.1333 181.074 79.0464C183.063 77.3745 184.85 75.3725 186.105 73.0818L186.103 73.0826L184.7 74.5192C183.166 75.8338 181.503 76.7824 179.582 77.2833L178.998 77.4201C178.863 77.4483 178.742 77.5547 178.605 77.546C178.555 77.5417 178.505 77.5243 178.451 77.4831C178.418 77.3875 179.382 76.6688 179.532 76.5342C181.573 74.7103 183.1 72.476 184.22 69.9746L183.434 70.8692C183.098 71.1862 182.774 71.5206 182.42 71.818C182.12 72.0677 180.466 73.2946 180.197 73.2902H180.175C179.888 73.2707 180.279 72.9797 180.333 72.9037C182.144 70.3806 182.959 68.0117 183.729 65.0608C183.779 64.8697 183.736 64.6352 183.914 64.4376C183.81 64.4289 183.658 64.6135 183.614 64.6743C183.032 65.4886 182.464 66.2789 181.756 66.9955C181.714 67.0367 181.684 67.0823 181.643 67.1214C181.582 67.1822 180.746 67.953 180.546 67.94C180.522 67.94 180.507 67.927 180.503 67.9053C180.731 67.5427 180.957 67.1692 181.122 66.7718C181.541 65.7535 181.849 64.6939 182.116 63.6494C182.446 62.364 182.718 61.0699 182.846 59.7475L182.733 59.6064C182.62 59.7996 182.55 60.0363 182.429 60.2209C182.344 60.3533 182.144 60.5922 182.029 60.7485C181.879 60.9526 180.679 62.4009 180.57 62.4161C180.555 62.4161 180.542 62.3966 180.529 62.3922C180.488 62.3727 180.435 62.3466 180.418 62.3119C180.388 62.2533 180.768 61.2349 180.815 61.0547C181.241 59.5043 181.499 57.6978 181.578 56.0888C181.588 55.8977 181.636 53.5006 181.51 53.4919L181.508 53.4941C181.102 54.0195 180.863 54.6818 180.472 55.2159L180.362 55.166C180.524 52.7884 180.075 50.3239 180.075 50.3239L180.075 50.3312L180.071 50.3939C180.034 50.8621 179.788 53.3869 179.532 53.3081L179.484 53.2617C179.469 52.7167 179.489 50.8276 179.434 49.2947C178.979 51.3292 178.575 53.3377 178.192 54.6058C176.544 60.0797 174.336 68.6001 170.452 78.6773C169.991 79.8716 169.494 81.0919 168.984 82.3295C168.673 83.083 168.369 83.8299 168.039 84.5986C165.175 91.2472 161.523 98.4018 156.866 105.728L156.839 105.769L163.097 114.474C163.636 115.258 164.144 116.003 164.734 116.843C165.77 118.32 166.767 119.731 167.724 121.077C168.682 122.423 169.548 123.637 170.326 124.725C171.101 125.813 171.67 126.642 172.032 127.209C173.07 128.712 174.013 130.058 174.868 131.25C175.724 132.442 176.564 133.46 177.393 134.316C178.219 135.169 179.074 135.866 179.953 136.413C180.835 136.954 181.819 137.304 182.904 137.462V138.237H157.745V137.462C158.47 137.358 159.247 137.243 160.077 137.108C160.902 136.984 161.679 136.789 162.405 136.528C163.13 136.268 163.725 135.905 164.192 135.438C164.656 134.976 164.891 134.381 164.891 133.656C164.891 132.931 164.552 131.96 163.881 130.742C163.208 129.53 162.431 128.247 161.551 126.901C160.359 125.038 159 123.005 157.476 120.804C155.947 118.602 154.199 116.133 152.232 113.388C151.405 114.372 150.499 115.46 149.513 116.65C148.53 117.842 147.546 119.045 146.565 120.261C145.581 121.479 144.634 122.656 143.729 123.796C142.823 124.933 142.059 125.943 141.438 126.823C140.713 127.86 140.068 128.894 139.499 129.928C138.928 130.965 138.644 131.945 138.644 132.878C138.644 133.604 138.876 134.238 139.343 134.783C139.81 135.326 140.402 135.777 141.128 136.14C141.853 136.502 142.628 136.789 143.46 136.995C144.287 137.202 145.062 137.358 145.787 137.462V138.237H128.356C128.351 138.239 128.347 138.244 128.343 138.248H117.755V137.345C129.465 130.933 140.174 119.868 148.721 108.418C147.737 107.024 146.669 105.517 145.477 103.837C144.081 101.869 142.693 99.9174 141.323 97.9741C139.951 96.0307 138.85 94.4956 138.023 93.3534C136.937 91.8509 135.964 90.535 135.111 89.3929C134.257 88.2573 133.428 87.2845 132.625 86.4833C131.823 85.6799 130.968 85.009 130.062 84.4618C129.157 83.9189 128.108 83.4673 126.918 83.1047V82.3295H152.232V83.1047C151.559 83.1546 150.784 83.2589 149.904 83.413C149.023 83.5715 148.219 83.7756 147.496 84.034C146.771 84.2968 146.15 84.6572 145.633 85.1219C145.114 85.5887 144.856 86.1858 144.856 86.9067C144.856 87.6363 145.218 88.5917 145.944 89.7837C146.667 90.9715 147.496 92.2439 148.428 93.5858C149.722 95.4488 151.042 97.3531 152.388 99.2964C152.803 99.8913 153.294 100.597 153.761 101.27C153.778 101.244 153.795 101.218 153.813 101.192C157.196 96.1089 160.11 91.1343 162.433 86.657C163.026 85.5171 163.562 84.3988 164.103 83.2806C164.255 82.9657 164.424 82.6422 164.572 82.3295C165.193 81.0137 165.77 79.7196 166.326 78.4363C170.25 69.3774 172.651 61.0959 174.714 53.6873C175.357 51.6484 176.047 49.5574 176.501 47.5033C176.523 47.4013 176.603 47.3057 176.64 47.208C176.49 47.2276 176.336 47.36 176.208 47.4425C175.726 47.7574 175.27 48.1243 174.801 48.4652C173.353 49.514 171.95 50.6453 170.701 51.909C170.69 51.9133 170.682 51.9133 170.673 51.9133C170.528 51.9046 170.658 51.3792 170.675 51.314C170.847 50.6995 171.127 50.1263 171.383 49.5466C171.411 49.4792 171.52 49.3663 171.42 49.3316C170.69 50.0785 169.857 50.7126 169.14 51.4747C167.772 52.9295 166.508 54.7491 165.605 56.5187C165.507 56.7098 165.08 57.7651 165.019 57.802C164.991 57.8194 164.969 57.8281 164.949 57.8259C164.921 57.8237 164.897 57.802 164.869 57.7629C164.758 57.6066 165.082 55.4157 165.145 55.0683C165.271 54.3952 165.442 53.7286 165.616 53.0685C165.64 52.9838 165.699 52.9035 165.601 52.8275C165.373 53.075 165.286 53.4029 165.114 53.6808C163.831 55.7631 162.583 57.9497 161.897 60.3164C161.482 61.3022 161.315 62.3814 161.058 63.4193L160.869 63.4041C160.626 62.136 160.546 60.8506 160.583 59.563L160.837 57.168C160.761 57.3395 160.659 57.5024 160.589 57.6782C159.515 60.3924 159.093 63.6473 159.152 66.5178C159.156 66.6893 159.211 67.6534 159.18 67.7055C159.167 67.7316 159.128 67.7402 159.085 67.7381C159.039 67.7337 158.987 67.7185 158.957 67.699C158.926 67.6773 158.965 67.5991 158.939 67.5579C157.875 65.7622 157.447 63.7841 157.306 61.7169L157.33 59.4587C157.085 60.3707 156.872 61.3044 156.733 62.2402C156.412 64.3812 156.412 66.8131 156.724 68.9627C156.811 69.5685 157.031 70.1656 157.022 70.7845C157.015 70.8105 157.002 70.8192 156.983 70.8192C156.859 70.8105 156.496 70.3003 156.468 70.259C155.858 69.3688 155.45 68.1854 155.076 67.1822L154.618 65.3257C154.549 65.4126 154.557 65.5038 154.54 65.5993C153.832 69.3167 153.81 73.4205 153.174 77.1791L153.09 77.3875L152.942 77.3506C152.796 76.7296 152.562 76.126 152.41 75.5072C150.139 66.3658 152.846 55.7761 159.667 49.2078C162.248 46.7216 165.347 44.8543 168.619 43.4516C168.58 43.4125 168.55 43.3973 168.523 43.3951C168.482 43.393 168.454 43.4234 168.421 43.4277C167.575 43.5471 166.498 43.8099 165.657 44.0096C164.778 44.2181 163.907 44.4895 163.041 44.7349L162.947 44.5872C163.747 43.9184 164.578 43.2735 165.494 42.7654L165.453 42.646C162.374 43.33 159.315 44.1247 156.386 45.2972L156.427 45.0367C157.141 44.3744 157.864 43.7122 158.55 43.0195C158.707 42.861 158.933 42.6525 159.026 42.4549C157.973 42.9326 156.866 43.3322 155.812 43.8099C154.078 44.6002 152.438 45.4688 150.857 46.5436C150.658 46.5132 150.751 46.3655 150.844 46.2396C151.604 45.1908 152.594 44.1747 153.394 43.1324C153.435 43.0803 153.533 42.9609 153.491 42.8979C152.46 43.3409 151.476 43.888 150.503 44.4569C149.344 45.1344 148.187 45.8726 147.192 46.815C146.966 47.03 145.865 48.2959 145.768 48.3284C145.755 48.3328 145.742 48.3349 145.731 48.3349C145.631 48.3284 145.694 48.0983 145.705 48.0614C146.009 47.0473 146.782 45.7858 147.377 44.8955C147.789 44.2789 148.313 43.7317 148.675 43.089C147.985 43.4994 147.275 43.8902 146.595 44.3201C144.597 45.5817 142.65 47.0756 140.887 48.6541C140.787 48.7475 140.381 49.2057 140.344 49.2143C140.339 49.2165 140.335 49.2165 140.331 49.2165C140.283 49.2122 140.19 49.1362 140.131 49.121C140.989 47.5077 141.903 45.9139 143.14 44.559L143.047 44.483L132.718 50.5367C132.651 50.5671 132.577 50.5866 132.523 50.5845C132.449 50.5801 132.405 50.5345 132.449 50.4173C134.236 47.8616 136.57 45.5621 139.011 43.6318C145.624 38.401 153.711 35.6478 162.105 36.1863C162.639 36.2188 163.173 36.2666 163.71 36.3274C168.067 36.8246 172.215 38.1644 176.141 40.149L175.587 39.2566C174.488 37.8886 173.216 36.8572 171.583 36.1754C171.538 36.1566 171.491 36.1422 171.443 36.1302L171.156 36.0679C171.015 36.0332 170.882 35.98 170.777 35.8497C170.747 35.6847 172.091 35.3894 172.56 35.4198C172.625 35.4241 172.673 35.435 172.699 35.4502L172.184 35.0702C170.143 34.1539 167.902 33.6653 165.681 33.4873C165.659 33.4808 165.629 33.4764 165.594 33.4743C165.321 33.4547 164.682 33.5872 164.47 33.5741C164.439 33.572 164.417 33.5676 164.407 33.5589C164.318 33.4895 164.381 33.4569 164.443 33.4091C165.123 32.8902 166.083 32.4689 166.878 32.1628C166.98 32.1541 166.915 32.0976 166.852 32.0868C166.092 31.9456 165.193 31.8501 164.417 31.785C164.226 31.7698 164.033 31.7546 163.836 31.7415C161.973 31.6221 159.888 31.659 158.112 32.039C157.986 32.0651 157.569 32.2214 157.404 32.2105C157.304 32.204 157.295 32.1389 157.489 31.9522C157.96 31.5027 159.397 30.7644 160.02 30.4691C160.403 30.2867 160.817 30.176 161.191 29.9697L161.124 29.9046C158.203 30.1955 155.148 30.2281 152.416 31.4006C152.277 31.4593 151.465 31.9 151.383 31.8957L151.379 31.8935C151.344 31.8783 151.32 31.722 151.396 31.6872C152.803 30.4235 154.245 29.1663 155.98 28.3738C156.008 28.3434 155.951 28.3108 155.912 28.3086L155.644 28.3153C154.944 28.3753 153.782 28.722 153.187 28.8493C151.151 29.2836 149.131 29.6831 147.327 30.7992C147.201 30.8773 146.777 31.253 146.617 31.2421C146.604 31.2421 146.591 31.2378 146.58 31.2313C146.519 31.1835 146.549 31.0858 146.595 31.0185C146.764 30.7775 147.246 30.3063 147.477 30.0696C148.688 28.8406 150.119 27.8157 151.572 26.9016L151.507 26.8365C148.004 27.5465 144.602 28.3542 141.521 30.2303C141.464 30.265 141.29 30.4431 141.206 30.4366C141.167 30.4344 141.145 30.3931 141.16 30.2867C141.173 30.1934 141.751 29.5224 141.868 29.3986C143.088 28.1262 144.743 27.1166 146.348 26.4282L146.306 26.311C145.957 26.4087 145.585 26.3827 145.231 26.4304C142.602 26.7865 139.762 27.299 137.161 27.9308C136.034 28.2044 134.922 28.5801 133.784 28.8146C133.678 28.6517 133.943 28.5388 134.06 28.4498C135.875 27.1035 138.264 25.944 140.363 25.1168C145.197 23.2103 150.517 22.2614 155.732 22.5937C158.184 22.7522 160.613 23.1929 162.956 23.9507C163.429 24.1027 164.118 24.4567 164.554 24.5566C164.576 24.5609 164.6 24.5631 164.624 24.5652L164.591 24.5435L163.679 23.9051C163.922 24.0745 164.226 24.1136 164.478 24.2222C164.695 24.3155 164.899 24.4241 165.114 24.524C165.336 24.4849 165.56 24.4415 165.729 24.4306C166.706 24.3742 167.816 24.3307 168.83 24.3959C169.023 24.4089 169.214 24.4241 169.396 24.4458C169.505 24.4588 169.585 24.4849 169.676 24.5414C169.735 24.4523 169.579 24.4306 169.516 24.398C169.021 24.131 168.415 23.8292 167.898 23.6098C166.7 23.0996 165.184 22.611 163.929 22.2354C163.01 21.9618 162.062 21.7707 161.137 21.5275C161.106 21.4711 161.074 21.4298 161.117 21.3647C161.206 21.2301 162.663 20.8305 162.93 20.7762C163.914 20.5743 164.995 20.5244 166.011 20.5895C166.131 20.596 166.25 20.6069 166.369 20.6177C166.398 20.6199 166.424 20.6221 166.443 20.6242C166.526 20.6286 166.517 20.6177 166.391 20.5548L164.667 20.101C162.85 19.6037 160.88 19.1086 158.967 18.9045C158.815 18.8872 158.666 18.8741 158.516 18.8655C157.886 18.8264 157.254 18.8329 156.629 18.8112C156.572 18.6136 157.365 18.3335 157.517 18.2727C158.616 17.8232 159.931 17.6169 161.113 17.4736L162.98 17.3694C162.691 17.2673 162.339 17.1414 162.046 17.0654C161 16.7875 159.888 16.5313 158.826 16.3033C157.156 15.9428 155.472 15.6758 153.771 15.5672C153.472 15.5476 153.17 15.5346 152.868 15.5259L152.953 15.3131L156.218 14.6943L157.943 14.5944C157.13 14.2101 156.26 13.9647 155.413 13.6911C152.829 12.853 150.23 12.245 147.507 11.8151C147.438 11.8042 147.34 11.7977 147.231 11.789H147.212L147.098 11.7823L146.984 11.7738C146.795 11.763 146.615 11.7478 146.53 11.7174C146.43 11.6805 146.404 11.6522 146.384 11.548C149.053 11.0182 151.874 10.8575 154.638 11.0356C155.589 11.0964 156.533 11.1963 157.463 11.3374C167.027 12.7748 174.684 18.6983 178.848 27.3294C179.15 27.9547 179.376 28.6235 179.662 29.2532C179.699 29.3335 179.686 29.4269 179.799 29.4508C179.332 27.9808 178.811 26.4977 178.125 25.1168C178.017 24.8996 177.409 23.9464 177.417 23.8053C177.422 23.7466 177.459 23.7314 177.5 23.7336C177.537 23.7358 177.578 23.7532 177.604 23.764C178.501 24.1918 179.367 24.9127 180.051 25.6249C180.186 25.766 180.247 25.9831 180.455 26.0439C180.479 26.0396 180.455 25.9701 180.44 25.9375C179.306 23.6424 177.893 21.3495 176.227 19.3822C176.012 19.1282 174.64 17.7233 174.64 17.6039C174.64 17.5431 174.688 17.5301 174.744 17.5344C174.801 17.5366 174.866 17.5583 174.894 17.5692C176.364 18.0469 177.708 19.0261 178.942 19.9186C178.976 19.9424 179.076 20.0163 179.144 20.0228C179.172 20.0228 179.193 20.0141 179.204 19.9837C178.54 19.2085 177.969 18.3617 177.33 17.567C175.658 15.4847 173.7 13.2113 171.448 11.7673C171.216 11.6197 171.277 11.5024 171.533 11.4894C173.322 11.8976 175.059 12.5903 176.631 13.5543C176.738 13.6195 176.807 13.7411 176.914 13.8149C177.072 13.917 177.215 13.9734 177.385 14.0994C177.417 14.1232 177.435 14.1319 177.446 14.1341C177.469 14.1363 177.467 14.0972 177.5 14.0364C177.2 13.8562 176.987 13.5109 176.753 13.2438C174.909 11.155 172.358 8.81647 169.952 7.4507C169.583 7.24008 168.778 6.97083 168.51 6.74067C168.356 6.60604 168.641 6.54525 168.745 6.54959C168.78 6.54959 168.814 6.55176 168.849 6.55393C169.844 6.6169 171.537 7.08374 172.417 7.44635C173.014 7.69389 173.596 8.04782 174.193 8.30838C174.238 8.32792 174.306 8.38438 174.354 8.38655C174.377 8.38872 174.395 8.37786 174.406 8.34529L169.079 3.45325C167.855 2.46746 166.663 1.44042 165.382 0.524108C165.247 0.428569 164.615 0.176693 164.886 0.0073282C164.895 -8.56188e-08 164.91 0 164.93 0ZM25.4288 82.3284V83.1058C24.7557 83.21 23.9545 83.3642 23.023 83.5726C22.0915 83.7767 21.2099 84.1133 20.3826 84.5801C19.5532 85.0448 18.841 85.7049 18.246 86.5582C17.6511 87.4137 17.3254 88.5406 17.2754 89.939C17.2233 91.7521 17.1842 93.4066 17.1582 94.907C17.1321 96.4074 17.1061 97.8839 17.0822 99.3344C17.054 100.783 17.0431 102.283 17.0431 103.838V117.971C17.0431 119.317 17.054 120.7 17.0822 122.125C17.1061 123.547 17.1213 125.141 17.1213 126.9C17.1712 128.556 17.2364 130.135 17.3145 131.637C17.3927 133.138 17.6641 134.252 18.1309 134.977C18.3372 135.235 18.752 135.494 19.373 135.752C19.994 136.011 20.7452 136.23 21.6246 136.412C22.504 136.593 23.4616 136.751 24.4973 136.879C25.5331 137.009 26.5666 137.072 27.6045 137.072C28.0171 137.072 28.6772 137.059 29.5826 137.033C30.4902 137.009 31.4869 136.955 32.5747 136.879C33.6604 136.801 34.7743 136.682 35.9121 136.527C37.0499 136.373 38.0595 136.169 38.9411 135.906C41.0104 135.34 42.7323 134.588 44.1046 133.655C45.4747 132.725 46.6537 131.651 47.6374 130.435C48.621 129.216 49.4482 127.896 50.1214 126.474C50.7945 125.047 51.4437 123.562 52.0647 122.008L52.8399 122.24L49.9672 138.236H0.115294V137.461C1.40942 137.253 2.69052 136.916 3.95858 136.451C5.22665 135.985 6.22329 135.34 6.94852 134.51C7.20691 134.198 7.42622 133.744 7.60861 133.153C7.78883 132.556 7.92996 131.87 8.03419 131.09C8.13841 130.315 8.22962 129.501 8.30779 128.645C8.38595 127.792 8.42287 126.952 8.42287 126.122C8.42287 125.399 8.43589 124.416 8.46195 123.174C8.48801 121.932 8.51189 120.57 8.54011 119.094C8.56617 117.619 8.5792 116.108 8.5792 114.551V92.2688C8.5792 91.3352 8.54012 90.4688 8.46195 89.6654C8.38595 88.8642 8.2687 88.1498 8.11236 87.5288C7.9582 86.9078 7.72369 86.4192 7.41319 86.0566C6.68796 85.1772 5.71737 84.5019 4.50142 84.0351C3.28546 83.5726 2.00438 83.2599 0.658141 83.1058V82.3284H25.4288ZM168.508 26.3501C169.6 27.0319 170.66 27.7723 171.683 28.5801C171.763 28.643 171.885 28.6712 171.974 28.7255C171.93 28.7842 171.854 28.7885 171.785 28.7842L171.748 28.782C171.592 28.7668 171.131 28.706 170.671 28.6343C171.107 29.0729 171.609 29.5854 171.861 29.7222C172.048 29.8221 173.713 30.0501 174.039 30.0848C174.052 30.0848 174.063 30.087 174.076 30.087L174.146 30.0867C174.193 30.0824 174.238 30.0674 174.267 30.0283C174.175 29.9741 174.056 29.9458 173.974 29.8829C172.256 28.5258 170.447 27.3424 168.508 26.3501Z" fill="#E0C469"/>
</svg>
