<svg width="20" height="18" viewBox="0 0 20 18" fill="none" xmlns="http://www.w3.org/2000/svg">
<path d="M19.4613 1.65844C19.3714 1.58843 19.2668 1.53981 19.1554 1.51626C19.0439 1.4927 18.9286 1.49484 18.8181 1.5225L13.0872 2.955L7.33563 0.0787478C7.17537 -0.00118376 6.99181 -0.0211362 6.81812 0.0224979L0.818125 1.5225C0.65587 1.56306 0.511827 1.65668 0.408889 1.7885C0.305951 1.92031 0.250025 2.08275 0.25 2.25V15.75C0.250017 15.864 0.276005 15.9764 0.325991 16.0788C0.375976 16.1813 0.448644 16.2709 0.538475 16.3411C0.628306 16.4112 0.732937 16.4599 0.844422 16.4836C0.955907 16.5072 1.07131 16.5051 1.18187 16.4775L6.91281 15.045L12.6644 17.9212C12.7688 17.9727 12.8836 17.9997 13 18C13.0613 18 13.1224 17.9924 13.1819 17.9775L19.1819 16.4775C19.3441 16.4369 19.4882 16.3433 19.5911 16.2115C19.694 16.0797 19.75 15.9172 19.75 15.75V2.25C19.75 2.13593 19.724 2.02335 19.674 1.92084C19.624 1.81833 19.5512 1.72859 19.4613 1.65844ZM7 13.5C6.93868 13.5 6.8776 13.5076 6.81812 13.5225L1.75 14.7891V2.83594L6.91281 1.545L7 1.58812V13.5ZM18.25 15.1641L13.0872 16.455L13 16.4119V4.5C13.0613 4.50027 13.1224 4.49303 13.1819 4.47843L18.25 3.21094V15.1641Z" fill="#0A1805"/>
</svg>
