<svg width="22" height="18" viewBox="0 0 22 18" fill="none" xmlns="http://www.w3.org/2000/svg">
<path d="M21.25 6V13.5C21.25 13.6989 21.171 13.8897 21.0303 14.0303C20.8897 14.171 20.6989 14.25 20.5 14.25H17.5V17.25C17.5 17.4489 17.421 17.6397 17.2803 17.7803C17.1397 17.921 16.9489 18 16.75 18H4.75C4.55109 18 4.36032 17.921 4.21967 17.7803C4.07902 17.6397 4 17.4489 4 17.25V14.25H1C0.801088 14.25 0.610322 14.171 0.46967 14.0303C0.329018 13.8897 0.25 13.6989 0.25 13.5V6C0.25 4.75969 1.315 3.75 2.62469 3.75H4V0.75C4 0.551088 4.07902 0.360322 4.21967 0.21967C4.36032 0.0790178 4.55109 0 4.75 0H16.75C16.9489 0 17.1397 0.0790178 17.2803 0.21967C17.421 0.360322 17.5 0.551088 17.5 0.75V3.75H18.8753C20.185 3.75 21.25 4.75969 21.25 6ZM5.5 3.75H16V1.5H5.5V3.75ZM16 12H5.5V16.5H16V12ZM17.5 7.875C17.5 7.6525 17.434 7.43499 17.3104 7.24998C17.1868 7.06498 17.0111 6.92078 16.8055 6.83564C16.6 6.75049 16.3738 6.72821 16.1555 6.77162C15.9373 6.81502 15.7368 6.92217 15.5795 7.0795C15.4222 7.23684 15.315 7.43729 15.2716 7.65552C15.2282 7.87375 15.2505 8.09995 15.3356 8.30552C15.4208 8.51109 15.565 8.68679 15.75 8.8104C15.935 8.93402 16.1525 9 16.375 9C16.6734 9 16.9595 8.88147 17.1705 8.6705C17.3815 8.45952 17.5 8.17337 17.5 7.875Z" fill="#2C2C2C"/>
</svg>
