<svg width="19" height="22" viewBox="0 0 19 22" fill="none" xmlns="http://www.w3.org/2000/svg">
<path d="M14.5002 14C13.9999 13.9999 13.5047 14.1001 13.0438 14.2948C12.5829 14.4895 12.1658 14.7746 11.8171 15.1334L7.49522 12.3556C7.83519 11.4839 7.83519 10.5162 7.49522 9.64439L11.8171 6.86658C12.4663 7.53156 13.3392 7.93181 14.2668 7.98973C15.1943 8.04764 16.1103 7.75909 16.8371 7.18003C17.564 6.60096 18.0499 5.77263 18.2007 4.85563C18.3516 3.93863 18.1565 2.99829 17.6534 2.21692C17.1503 1.43556 16.375 0.868831 15.4778 0.62662C14.5806 0.38441 13.6254 0.483971 12.7975 0.906001C11.9695 1.32803 11.3277 2.04246 10.9966 2.91078C10.6655 3.7791 10.6685 4.73945 11.0052 5.60564L6.68335 8.38345C6.16291 7.84915 5.49496 7.48218 4.76489 7.32946C4.03481 7.17674 3.27578 7.24521 2.58481 7.52611C1.89385 7.80701 1.30235 8.28758 0.885924 8.90639C0.469499 9.5252 0.24707 10.2541 0.24707 11C0.24707 11.7459 0.469499 12.4748 0.885924 13.0936C1.30235 13.7124 1.89385 14.193 2.58481 14.4739C3.27578 14.7548 4.03481 14.8233 4.76489 14.6706C5.49496 14.5178 6.16291 14.1509 6.68335 13.6166L11.0052 16.3944C10.7157 17.1411 10.6729 17.961 10.883 18.7338C11.0931 19.5067 11.5451 20.192 12.1729 20.6893C12.8006 21.1867 13.5712 21.47 14.3716 21.4978C15.172 21.5255 15.9603 21.2963 16.621 20.8437C17.2818 20.391 17.7802 19.7387 18.0434 18.9823C18.3066 18.2258 18.3206 17.405 18.0836 16.64C17.8465 15.875 17.3707 15.206 16.7259 14.7309C16.0811 14.2558 15.3011 13.9997 14.5002 14ZM14.5002 2.00001C14.9452 2.00001 15.3802 2.13197 15.7503 2.37921C16.1203 2.62644 16.4087 2.97784 16.579 3.38897C16.7493 3.80011 16.7938 4.25251 16.707 4.68897C16.6202 5.12542 16.4059 5.52633 16.0912 5.841C15.7765 6.15567 15.3756 6.36996 14.9392 6.45678C14.5027 6.5436 14.0503 6.49904 13.6392 6.32874C13.2281 6.15844 12.8767 5.87006 12.6294 5.50005C12.3822 5.13003 12.2502 4.69502 12.2502 4.25001C12.2502 3.65328 12.4873 3.08098 12.9092 2.65902C13.3312 2.23707 13.9035 2.00001 14.5002 2.00001ZM4.00023 13.25C3.55522 13.25 3.1202 13.1181 2.75019 12.8708C2.38018 12.6236 2.09179 12.2722 1.9215 11.8611C1.7512 11.4499 1.70664 10.9975 1.79346 10.5611C1.88028 10.1246 2.09457 9.72369 2.40924 9.40902C2.7239 9.09435 3.12481 8.88006 3.56127 8.79325C3.99773 8.70643 4.45013 8.75099 4.86126 8.92128C5.2724 9.09158 5.6238 9.37997 5.87103 9.74998C6.11827 10.12 6.25023 10.555 6.25023 11C6.25023 11.5967 6.01317 12.169 5.59122 12.591C5.16926 13.013 4.59696 13.25 4.00023 13.25ZM14.5002 20C14.0552 20 13.6202 19.8681 13.2502 19.6208C12.8802 19.3736 12.5918 19.0222 12.4215 18.611C12.2512 18.1999 12.2066 17.7475 12.2935 17.3111C12.3803 16.8746 12.5946 16.4737 12.9092 16.159C13.2239 15.8444 13.6248 15.6301 14.0613 15.5432C14.4977 15.4564 14.9501 15.501 15.3613 15.6713C15.7724 15.8416 16.1238 16.13 16.371 16.5C16.6183 16.87 16.7502 17.305 16.7502 17.75C16.7502 18.3467 16.5132 18.919 16.0912 19.341C15.6693 19.763 15.097 20 14.5002 20Z" fill="#252525"/>
</svg>
