<svg width="22" height="19" viewBox="0 0 22 19" fill="none" xmlns="http://www.w3.org/2000/svg">
<path d="M15.6875 0.75C13.7516 0.75 12.0566 1.5825 11 2.98969C9.94344 1.5825 8.24844 0.75 6.3125 0.75C4.77146 0.751737 3.29404 1.36468 2.20436 2.45436C1.11468 3.54404 0.501737 5.02146 0.5 6.5625C0.5 13.125 10.2303 18.4369 10.6447 18.6562C10.7539 18.715 10.876 18.7458 11 18.7458C11.124 18.7458 11.2461 18.715 11.3553 18.6562C11.7697 18.4369 21.5 13.125 21.5 6.5625C21.4983 5.02146 20.8853 3.54404 19.7956 2.45436C18.706 1.36468 17.2285 0.751737 15.6875 0.75ZM11 17.1375C9.28813 16.14 2 11.5959 2 6.5625C2.00149 5.41921 2.45632 4.32317 3.26475 3.51475C4.07317 2.70632 5.16921 2.25149 6.3125 2.25C8.13594 2.25 9.66687 3.22125 10.3062 4.78125C10.3628 4.91881 10.4589 5.03646 10.5824 5.11926C10.7059 5.20207 10.8513 5.24627 11 5.24627C11.1487 5.24627 11.2941 5.20207 11.4176 5.11926C11.5411 5.03646 11.6372 4.91881 11.6937 4.78125C12.3331 3.21844 13.8641 2.25 15.6875 2.25C16.8308 2.25149 17.9268 2.70632 18.7353 3.51475C19.5437 4.32317 19.9985 5.41921 20 6.5625C20 11.5884 12.71 16.1391 11 17.1375Z" fill="#252525"/>
</svg>
