<svg width="21" height="21" viewBox="0 0 21 21" fill="none" xmlns="http://www.w3.org/2000/svg">
<path d="M10.5 0.75C8.57164 0.75 6.68657 1.32183 5.08319 2.39317C3.47982 3.46451 2.23013 4.98726 1.49218 6.76884C0.754225 8.55042 0.561142 10.5108 0.937348 12.4021C1.31355 14.2934 2.24215 16.0307 3.60571 17.3943C4.96928 18.7579 6.70656 19.6865 8.59787 20.0627C10.4892 20.4389 12.4496 20.2458 14.2312 19.5078C16.0127 18.7699 17.5355 17.5202 18.6068 15.9168C19.6782 14.3134 20.25 12.4284 20.25 10.5C20.2473 7.91498 19.2192 5.43661 17.3913 3.60872C15.5634 1.78084 13.085 0.75273 10.5 0.75ZM14.7806 8.78063L9.53063 14.0306C9.46097 14.1004 9.37826 14.1557 9.28721 14.1934C9.19616 14.2312 9.09857 14.2506 9 14.2506C8.90144 14.2506 8.80385 14.2312 8.7128 14.1934C8.62175 14.1557 8.53903 14.1004 8.46938 14.0306L6.21938 11.7806C6.07865 11.6399 5.99959 11.449 5.99959 11.25C5.99959 11.051 6.07865 10.8601 6.21938 10.7194C6.36011 10.5786 6.55098 10.4996 6.75 10.4996C6.94903 10.4996 7.1399 10.5786 7.28063 10.7194L9 12.4397L13.7194 7.71937C13.7891 7.64969 13.8718 7.59442 13.9628 7.5567C14.0539 7.51899 14.1515 7.49958 14.25 7.49958C14.3486 7.49958 14.4461 7.51899 14.5372 7.5567C14.6282 7.59442 14.7109 7.64969 14.7806 7.71937C14.8503 7.78906 14.9056 7.87178 14.9433 7.96283C14.981 8.05387 15.0004 8.15145 15.0004 8.25C15.0004 8.34855 14.981 8.44613 14.9433 8.53717C14.9056 8.62822 14.8503 8.71094 14.7806 8.78063Z" fill="white"/>
</svg>
