<svg width="40" height="40" viewBox="0 0 40 40" fill="none" xmlns="http://www.w3.org/2000/svg">
<path d="M34.6672 12.9938C36.4018 16.6216 36.7311 20.7633 35.5915 24.6196C34.452 28.476 31.9243 31.7735 28.4965 33.8758C25.0686 35.9781 20.9836 36.7361 17.0297 36.0036C13.0758 35.2711 9.53338 33.0999 7.08615 29.9092C4.63891 26.7184 3.46033 22.7343 3.77787 18.7257C4.09541 14.7171 5.88656 10.9682 8.80563 8.20251C11.7247 5.43686 15.5647 3.85051 19.5847 3.74963C23.6046 3.64875 27.5193 5.0405 30.5735 7.65626L34.1156 4.11251C34.3502 3.87796 34.6683 3.74619 35 3.74619C35.3317 3.74619 35.6498 3.87796 35.8844 4.11251C36.1189 4.34706 36.2507 4.66518 36.2507 4.99689C36.2507 5.32859 36.1189 5.64671 35.8844 5.88126L26.1875 15.5797L20.2953 21.4719L16.5531 25.2141C17.5206 25.854 18.6471 26.212 19.8064 26.2481C20.9658 26.2843 22.1124 25.997 23.1178 25.4186C24.1232 24.8401 24.9478 23.9933 25.4994 22.9729C26.0509 21.9524 26.3076 20.7986 26.2406 19.6406C26.222 19.3091 26.3358 18.9838 26.557 18.7362C26.7783 18.4886 27.0888 18.339 27.4203 18.3203C27.7519 18.3017 28.0772 18.4155 28.3248 18.6367C28.5724 18.858 28.722 19.1685 28.7406 19.5C28.8415 21.27 28.4022 23.0289 27.4811 24.5437C26.56 26.0585 25.2005 27.2578 23.5826 27.9827C21.9647 28.7076 20.1648 28.924 18.4212 28.6031C16.6776 28.2823 15.0726 27.4393 13.8188 26.1859C12.2594 24.6207 11.3498 22.5235 11.2728 20.3153C11.1958 18.1072 11.957 15.9517 13.4036 14.2816C14.8501 12.6115 16.875 11.5505 19.0715 11.3116C21.268 11.0727 23.4736 11.6737 25.2453 12.9938L28.7969 9.43595C26.1919 7.27313 22.8797 6.14901 19.4964 6.2795C16.113 6.40999 12.8972 7.78589 10.4666 10.1429C8.03589 12.5 6.56175 15.6719 6.32727 19.0496C6.0928 22.4273 7.11452 25.7726 9.1962 28.4429C11.2779 31.1131 14.2727 32.9202 17.6056 33.5169C20.9384 34.1136 24.3742 33.4579 27.253 31.6758C30.1319 29.8936 32.2508 27.1107 33.2028 23.8615C34.1548 20.6123 33.8728 17.1259 32.411 14.0719C32.268 13.7727 32.2497 13.429 32.3602 13.1163C32.4707 12.8036 32.7008 12.5477 33 12.4047C33.2992 12.2617 33.643 12.2435 33.9556 12.3539C34.2683 12.4644 34.5242 12.6946 34.6672 12.9938Z" fill="#101010"/>
</svg>
