<svg width="40" height="40" viewBox="0 0 40 40" fill="none" xmlns="http://www.w3.org/2000/svg">
<path d="M40 7.59431C38.529 8.2461 36.9488 8.6865 35.2876 8.88556C36.9823 7.87089 38.2824 6.26069 38.8954 4.34401C37.3099 5.28478 35.5535 5.96826 33.6845 6.33468C32.187 4.74222 30.0555 3.74512 27.6949 3.74512C23.1639 3.74512 19.4891 7.41989 19.4891 11.9544C19.4894 12.5828 19.5603 13.2092 19.7005 13.8218C12.8777 13.4782 6.83342 10.2103 2.78517 5.24602C2.08059 6.46155 1.67532 7.87089 1.67532 9.37179C1.67532 12.2186 3.12523 14.7325 5.32546 16.2035C4.02233 16.162 2.74796 15.8099 1.6084 15.1764V15.2821C1.6084 19.2581 4.43586 22.5753 8.19168 23.3293C7.48693 23.5195 6.76009 23.6154 6.03013 23.6147C5.51177 23.6151 4.99452 23.5668 4.48522 23.4703C5.52986 26.7293 8.55991 29.104 12.1519 29.1674C9.34202 31.3694 5.80291 32.6819 1.95897 32.6819C1.29659 32.6819 0.642997 32.6431 0 32.5673C3.63257 34.8981 7.94508 36.2545 12.5782 36.2545C27.6755 36.2545 35.9288 23.7503 35.9288 12.9056C35.9288 12.5534 35.92 12.1974 35.9041 11.8452C37.5073 10.686 38.8989 9.24319 39.9964 7.59957L40 7.59431Z" fill="#E0C469"/>
</svg>
